<mxfile host="app.diagrams.net" modified="2022-07-24T05:41:09.619Z" agent="5.0 (Windows NT 10.0; Win64; x64) AppleWebKit/537.36 (KHTML, like Gecko) Chrome/103.0.0.0 Safari/537.36" etag="TwIvImUGEMsMlINMVM2z" version="20.2.0" type="github">
  <diagram id="2i_HyivvJcre_FDAyk1B" name="第 1 页">
    <mxGraphModel dx="1128" dy="657" grid="1" gridSize="10" guides="1" tooltips="1" connect="1" arrows="1" fold="1" page="1" pageScale="1" pageWidth="827" pageHeight="1169" math="0" shadow="0">
      <root>
        <mxCell id="0" />
        <mxCell id="1" parent="0" />
        <mxCell id="sS0yLVqc_8xqp_RQtCRq-1" value="" style="group" vertex="1" connectable="0" parent="1">
          <mxGeometry x="270" y="300" width="832" height="210" as="geometry" />
        </mxCell>
        <mxCell id="MTOQvqBgH8RQE9H4jNm6-8" value="" style="rounded=0;whiteSpace=wrap;html=1;dashed=1;fillColor=none;" parent="sS0yLVqc_8xqp_RQtCRq-1" vertex="1">
          <mxGeometry x="472" width="360" height="120" as="geometry" />
        </mxCell>
        <mxCell id="MTOQvqBgH8RQE9H4jNm6-7" value="" style="rounded=0;whiteSpace=wrap;html=1;dashed=1;fillColor=none;" parent="sS0yLVqc_8xqp_RQtCRq-1" vertex="1">
          <mxGeometry x="222" width="230" height="100" as="geometry" />
        </mxCell>
        <mxCell id="MTOQvqBgH8RQE9H4jNm6-22" style="edgeStyle=orthogonalEdgeStyle;rounded=0;orthogonalLoop=1;jettySize=auto;html=1;exitX=0.449;exitY=0.008;exitDx=0;exitDy=0;exitPerimeter=0;" parent="sS0yLVqc_8xqp_RQtCRq-1" source="MTOQvqBgH8RQE9H4jNm6-1" edge="1">
          <mxGeometry relative="1" as="geometry">
            <mxPoint x="272" y="70" as="targetPoint" />
            <Array as="points">
              <mxPoint x="190" y="135" />
              <mxPoint x="190" y="110" />
              <mxPoint x="272" y="110" />
            </Array>
          </mxGeometry>
        </mxCell>
        <mxCell id="MTOQvqBgH8RQE9H4jNm6-47" style="edgeStyle=orthogonalEdgeStyle;rounded=0;orthogonalLoop=1;jettySize=auto;html=1;exitX=0.5;exitY=0;exitDx=0;exitDy=0;fontSize=11;" parent="sS0yLVqc_8xqp_RQtCRq-1" source="MTOQvqBgH8RQE9H4jNm6-1" edge="1">
          <mxGeometry relative="1" as="geometry">
            <mxPoint x="642" y="70" as="targetPoint" />
            <Array as="points">
              <mxPoint x="190" y="110" />
              <mxPoint x="642" y="110" />
              <mxPoint x="642" y="70" />
            </Array>
          </mxGeometry>
        </mxCell>
        <mxCell id="MTOQvqBgH8RQE9H4jNm6-52" value="嵌套" style="edgeLabel;html=1;align=center;verticalAlign=middle;resizable=0;points=[];fontSize=11;" parent="MTOQvqBgH8RQE9H4jNm6-47" vertex="1" connectable="0">
          <mxGeometry x="0.6172" y="1" relative="1" as="geometry">
            <mxPoint x="-81" as="offset" />
          </mxGeometry>
        </mxCell>
        <mxCell id="MTOQvqBgH8RQE9H4jNm6-1" value="" style="shape=image;verticalLabelPosition=bottom;labelBackgroundColor=default;verticalAlign=top;aspect=fixed;imageAspect=0;image=data:image/png,iVBORw0KGgoAAAANSUhEUgAAAbIAAADvCAYAAACXFFGBAAAgAElEQVR4nOzdd3hUZdrH8e/0THonnZAEQkLvVaQIqCCIgmVFBRRFxV521VWsi2XXV9eyirqirmIXRJReRHovgSSkN9JI79PePwKhBUiZzGTI/bkuL8mU59wz58z5nfKc5ygsFosFIYQQwkEp7V2AEEII0RoSZEIIIRyaBJkQQgiHJkEmhBDCoUmQCSGEcGgSZEIIIRyaBJkQQgiHJkEmhBDCoUmQCSGEcGgSZEIIIRya2t4FXA7MZjOVlZXU1NRgNpsxm83IyF9CiPZMoVCgUqlQqVQ4Ozuj1+vtXVKLSZC1QE1NDcXFxZSXlVJeXkplVQ16nQq9TolSCUoFoLB3lUIIcWEWiwKzBUwmCxVVJiwWcHV1wc3dA3d3D7y9vVEqHeOgnUIGDW664uJisrMyKSktwcddjZuLAjdnFa7OSlRKSS4hhOOqNZgprzRTXmWitAIqa0wEBgQSFByCk5OTvcu7KAmySzCbzRw/fpzs7EwUFiNBfioCvDWoVBJcQojLV1WNmZwCI7lFBjw9PAkN64yHh4e9y2qUBNlFVFRUEH80Do3KSFiAGi83ORIrhOhYTCYLuUUGMnKN+Pj6ExkZhUqlsndZZ5Ega4TFYiEjPZ2srEwigjUE+mrsXZIQQtiVwWghKauOskqI7h6Lp6envUtqIEF2jpqaGuIOH0StNBDdWYuT1jFOdgohhC0UlhhJzKijU6cAIiKjUCjsf5pFguwMNTU17N+3lyBfBWEBWnuXI4QQ7ZLBaOFwSi16F2+io7vbPcwkyE46FWIh/gpC/CXEhBDiYkwmCweT20eYSZBxOsRC/RUES4gJIUSTmMwWDiXV4uTsRXT3GLuFWYc/AWQymTh4YD8hEmJCCNEsKqWCXlE6qquKSUtLtVsdHT7IUlOTcXUyy+FEIYRoAZVSQWwXLTk52ZSVldmlhg4dZCUlJeTn5dE1TEJMCCFaSqdREhWiIT7+CCaTyebT77BBZjKZiD96hG5hWjRq+3cfFUIIR9bJW4OLzkxqaorNp91hgyw9PQ0PV/D1lNE6hBDCGrqFacnPy6WiosKm0+2Qa3GTycTxnBz6d298IMxxk+ex/1Aibq7ONq5MiHpl5ZVMGDuUbxYvbFU7lZXVpKRlW6kq0VY8PVwJDQmwdxmtplErCPJTk52dRXR0d5tNt0MGWX5eHu4u9bddaUx6Zi7v/fMphg3ubePKhKi3ZsMOFn+1vNXt7NwTx9jJ8+jXO9oKVYm2cOBQIjdOHcd3X7xm71KsIshXzc64fCIiItFobDO8X4cMsuzsTCICLzzopU6rITwsiPDOQTasSojTwsMC0VppJXDV6MGs+eUDq7QlrG/J9ytZtmKTvcuwGq1GiY+nhtzjxwkNC7PJNDvcObLS0lJMJgNe7u1r9GYhhLhcBPupyM7JwlbjbXS4ICsoyCfAW2n3scGEEOJy5e6iQonFZp0+OlyQlZeV4uYie2NCCNGW3FxUlJeX22RaHSrILBYLFZVVuDlLkAkhRFtyc7ZQXm6bkT46VJBVVVWhUSvlAmghhGhj7i4qystKbTKtDhVk5eXluDt3qI8shBB24apXUlVdY5MhqzrUWr26uhp949dACyGEsCKlUoFOq6K2trbtp9XmU2hHzCYTqg71iYUQwn6USgVms7ntp9PmU2hHzGYTSqWcHxNCCFtQKiTIrE5uhi2EELajUNhmvduhgkwIIcTlp8VjLWbnlfLFigOs2p5EZWUNJoPRmnU1i0qtwtlVz4QhkdwxqQ+hAZ42ryH3RC3/XZ7Emt2FVNaAxdKyQ5gKhQVXJ5gw2I/ZkyPp5K1rdW1llUZ+2nicP/cWcyy7kqo6E+Z2vHOqUoK3i5aeEa5MHOHHuAG+VjkknJBRwae/pbLlYAm1dUArvgOlCkI6aZh5VWeuvyLgsjxknV1Qw+crklm7u5CKVi7THs5w9dAAZk3qgo9Hy29km3uilm/XH2fljkKKy+owtdGCrACc9WoGx3jyl/GB9O3q3ibTaWuZ+dX897c01u0upKqG1i3zSvD3UXHzmDBuHhuEVtN+9oOaHWQVVbU8/vZq9hzJpiAyirwRYzE4u2CxYy8KhcmMpqqKtNQkfn7yG/p1D+KtRybi5tL6EGiKzPxq7v7HTq6N/IP/Tf8DX+fWXc1eWOnOd4dGMevlUXzyzGCC/VrW1bK0wsCHP2WwbHMuPpUaPIrUxNa5oDG175WuBajRmMlMruaNA8n8yy2Ve24I5YbRgS1uc9vhYp78zyFih6cw5d58tHpD62o0K8jP9OCTNWXsTSzi5btjL6thz5KzK5n3+m6uj17Pl9O3tnqZzq3wZMmBscx6eRifPDuYTl7N/22u2JrPa1+lMHpoNH+9fxj+Pm6oVG3znVssUFlVy9a9yTy96CCDu7vywpwoh5rH8ekV3PvPfUT0y+DqOTnoXeta16BFwYlcV37YXMzmQwW893CfdhNmzQqyiqpa7ljwEwe0nqROm4FF3T4Gz7eooFarJaPfQDJ796Vo725uX/AjX754o03C7B+LD3Jbz1+5o/8Gq7QX7FHEoyOX4uFUwWtf6Hn38UHNbqOkwsCdLxzAlGmmT74bTqb2scA1lWudCtc6FUHlOkqcDLz3eTpHUyt5dnZUs9uqqTPx1IeHuXL6AQI6W+sCTQvBkcV0CtvNysVKVu/yZ+JgPyu1bX8vfHyAewf+wPSe26zSXmfPQv525Xe8v62St75y5fX5/Zr1/pXbC3jr23RefWIaoUHeVqnpUnRaNZPH9mb8yBheefdXXl6czPMtWP7swWKx8PgHh+g3/giRPQus1SqdQsvwu2UfG76F/632Yc4k24xufylNXrsZjCbuWPAT+3XepAwe3m5C7FwWlZrUQUM5qPfh9gU/YjC07cV4ecW1HE2r5Jbef1i97b/03cT+YxWcKG3eltSpEFOlWuh63NnhQuxcnjUaeqS6sGFTIa9+ltTs96/ZVYhfcJkVQ+w0tcZM7PBkvt2QbvW27SU5u5L8ogpu6LHd6m3f2X8tWw6VUl7V9FMRBqOZN5ek8vQDk2wWYmfSaTU8O38yfxwsISHDtnc+bqld8aUYFVVWDLHTlEroPSqJ7zZkWr3tlmryGm7N1mOk1ChIHTS0LeuxmtSBQ0mtU7F6a2KbTqeguI5gj3K0ausHppPaQKBHJQUlTQ8yg9HMrBfrQ6xzgd7qNdmL2qwgJq0+zP7v65RmvTcjrxqPgKI2qgx8A8vJLmj7iz5tJb+4ji7eRSgV1j//5KqrxdulhqKypi/Tq3cWEhrkTWRn++3xOuk0TBjVk2/W5tqthubIyq/BJ6jtxjn0DSon70Tbj9jRVE0Oso+X7ye1W2xb1mJ1ad1iWbR8f5tOw2KxoGiDH/wpCiw0p/fqL3/mUZNnuqxC7BS1WUF0mjPfrT9OYTPC3Wxu43mkoM06HdiDxVK/3LUVhcJCcy4t2pNYzuC+kW1WT1MN6duFvcdsM5p7a5lssMxbLIp2c0lTk4IsKaOQrMIKykLbx/HQpioLCSX7RCXH0gvtXYpNmM0WPv4pk4DclvcKa++0ZiX+ZVq++C3L3qUIG6mqMeGst/8y7azXUlVjv97Z4sKaFGSZuaUYfLzrY9iRKBQYfbzJzC2xdyU2sTuhFGOlGa8ajb1LaVOBhVp+3JDbbrYGRdtqT7O5PdUiTmtSkFVW12FQO+bKsU6tpbK6ld1OHcTBY2W4ll7+91rTG1WoLJCRV2PvUoQQ7UDTzpE5+FZIR9mKik+pwKnKsXsoNpWbUU1ydqW9yxBCtAMdY63XQVTXmlG1cPQFR6M0Kag1tP1gpEKI9k+C7DLSUfY8T+lon1cI0TgJMiGEEA5NgkwIIYRDkyATQgjh0CTIhBBCODQJMiGEEA5NgkwIIYRDkyATQgjh0CTIhBBCODQJMiGEEA5NgkwIIYRDkyATQgjh0CTIhBBCODQJMiGEEA5NgswBmc1y+xIhhDhFgswBrd2wkyk3P8qefUftXYoQQtidBJmDWv77ZgZeeTvX3fQIu/cesXc5QghhN2p7FyAurqy4kP989Dl+nrqGx1av297w719X/smvK/9k8tUj0QWOQ0ewPcoUQgi7kSBzABYLWM64HbLlnFsjq5RKfLw9qdPpbV2aEELYnQRZO+fu5cv988YQE+7a8NjQQb2YOG0+KqWS22+9lmefuIuoyFDuf+0wpdTZsVohhLA9CTIHpFarmHXb5IYAE0KIjkyCzAGNGTWQsVcOsncZQgjRLkivRQekUCjsXYIQQrQbskcmRDvy0msf89Z7X1FaVgGAZ8hoNGo1+7Z8RUhwJztXJ6zp9rnPsfz3zQ3zeuXabfj5enJo+7c4Oeku8W5xJtkjE6IdmXfXjRgMxoa/S8sqmDJplITYZeiR+//SEGJQP6/vvvN6CbEWkCAToh3x9/PmvrunN/ytVql49ok5dqxItJUB/WKYNHFkw9++3p7Mv+dmO1bkuCTIhGhnnnrkDpz1TgDMvOUaIrqE2Lki0VYW/G1uw7+feHgmLi5yLWhLSJAJ0Y4YjUZqauq4dfpEVColf3/ybnuXJNqIyWQiMMCX0SMH4O3lLntjrSCdPYSwsxMnSvjki6Us/XUT+w8mUFN7+qL2Cdc/wMhhfbln9jRGDO1rxyqFNRQXl/HpF8tY+utG9h1MoKq6puG5HoNvYuSwPsydNY0rRw6wY5WOR4JMCDsxmUws/Ndn/OOfn1FdU0uf3r2Zc9fdxMTEoNFoyM7OZt++ffy4bD1fLFnB8CG9+fT95+neLdzepYtmMplMvPnOl7z8+idUVdfQq2dP7rhzFrGxsWi1WnJzc9m3bx+//LaOr75byZCBPfnvB88T2z3C3qU7BAkyIeyguLiMyTc9wtYdB5k8aRILXniBgQMHNjxvsVgwmUyo1WpKS0v59NNPefGFF+g34i988t5z3HbzNXasXjRHSUk51930KH9u3881V1/NghdeYMiQIQ3PG41GVCoVCoWC8vJyFi9ezPPPPceAK2ay6N/Pcvutk+xYvWOQc2RC2FhpaQXjpz7Azt1xfPrppyz/9dezQgzg/fffR6PRAODh4cFjjz3G4bg4+vXrzx33PM9X3/5uj9JFM52a19t3HWLRokX89vvvZ4UYgEajYcGCBQC4ubnx4IMPcjgujv79BzBr3gt8uWSFPUp3KBJkQtjYfY8uZP/BBL759lvmzGl61/rQ0FBWrV7NkCFDuOuBl4g7mtyGVQpruP+x19h3IJ4l33zD3LlzL/2Gk4KDg1m1ejVDhw5l7oOvyLy+BAkyIWzo1983s+SHVTzx5JPceOONzX6/m5sbP/z4I87OLsya92IbVCisZcXKP/n6+5U8/sQTTJ8+/dJvOIerqyvf//ADer0zs++TeX0xEmRC2NBrby0mNCSEF19s+YopKCiIV159ld37jrB2ww4rViesaeG/PiMkOJiXXnqpxW2cmte79h5h3cadVqzu8iKdPZrAZDJhMBhl6JjLkpHCA/kc3VlMcTUo1GqcXZVYUOEW4kHkYB98XS/dSlMciU9hy44DvPrqq+h0rVuW7rzzTp595hk++u9PXDVmyKXfIGzq1Lx+5ZVXWj2vZ82a1TCvx40ebIXqbLfM24oNgqwCEjbCwX1QpwNXl5OPm6G6FDxGwcT+cGwDHNwPtYCTOygU4DcABo8Ap7av8mKqq2uJ7n8Df3tsFnNnTbtgoKXEwao9kFkL/uEwYRDEetY/ZzoBK3fBjkxwj4WHR4Dm5PsMBbBqF2w7Dt16woSBEKi6cD0HDiVy8PAx/nLT1ahUF3nhxahcib49mv4xepQ15RxblsC+Ml9G3dyZQA8FhrwC9v+cSEIKeA2JYOg1AXhWF7L7qzSqe0bSf6Q3bqpyDr9/kANZlvOadxnXiykT3DHm5HN4dRpHjxrOel4ZHc3E4fms/qwYU8s+wXlOnChh8Ve/cv/c6ej1TV1o1Pj26UTQHwn8tNabu77sQU8PqMkuZP+So7z3tpphT/dh/DB9sw9fvL/oOyaMHUrXqDAA/tiyF4AbbrihmS2dz8XFhYlXX82GdWta3MaJEyV89r/l3Hf39AuOKGGrZbqgsJgvvl7BvLtubMXoFuWkbfudjZvjKDSFcsXc2QzxPX+i5Xu+5NOVSWhDBzJ89Fj6hrk00lbT/bx8A54ebowZdbrDjrXn9YSJE9m8aX2jz7/9/tdMuXZUM0aAabtlvqX27NlDfHw8t956K0pl86dqgzpdIfoqMKyDbeVw9QMw9QGY+iBcOx4KjoHZFaLHQ91a2F4L1z0MV42A3Q/DSy9BkbVWdS2Xk1vIQ0/9k8jeU3n3w2+oqak97zURPaBXHfxrDXQZfvoHD6DygUnjoU8pPPk6/Cvu9HMaP7imLxxJhzGX+MED5OUXcce9C4gdNIP/ffMbZrO5+R/IVEHCz/ko+0bQO7CGw3trMCRlsf2AksjxXQiqzSYhxQJYKN6RToGLK4btyRzLqiVrZSLp2gD6X92LiTN9Oa9clQfD7+zFoHGdUB5MOS/EQEXkjO6Mub4rEVYckaemto4n/v42Eb2m8vb7Xzc6jxqnQO+uQalSoTm5jeIU7MvQRwdxy5hqVr1wmJ0Zzf+Of16+gZiB07nz3gUkJWeyZ188bq6uREdHN7utxgwaNIj8wiKysvNa9P7aOgNPPvcOEb2m8K9//4+qqprzXmOrZbq2Yd5duJZLcyN82GRia1fx8VvP8v4P8Zy75GHKYNVHz/PefzZi6jmh1SEGcPDwMcZOnsfoa+5h4+bdAOzdH4+ri4tV53Vu/glyjhec99w3P64muv+N3P3Ay6Sl5zSxxbZZ5lsqNzeXmTNn0qNHD5YsWdLsdZqNDi2qQO92/sPu/WGM18k4VYGzO3DyXlseA+DGO+CJhbB5BkyNadGUc1d/yO0fbkWtUmAymVBg4VKBX1xSzqTpD6PR1H89FZXVDc+dCrTX3lrMM0/M4YqxE896r6craPTg2tgPVwXdQqCXB7z4FsQshKn+J5/yAG9X8DrnfUaDgYzMbLTm0z+45NQsABKTMrj9nud55c1Pef6vc7FYgpr2pZxSepyDeyvp38+HLi4QVwmV65KJv68Lvbt1wpkKqgC03gRTwO5tp0ZlN1NeXE5uqoKA8bH0/+8mduWfblYztBtdnSuptpipLjp/bw3vMIb212EMDmXwlXs5ttJ4/msuwWw2cTznOMkpp0fByD5eX0Ru/gkeffot3nj7C/722CyMnv2a3T4AKh3dbgon5vuDbF0ZxcB7vC74g6mrLic5Jeusx5JTszCZzXyxZAVff7eSoEA/vL29z7qf3KXuLXeh519//XVCQ+vvDr7vYAK1teetsgHIzikgIyuP9Zt2ARAS5N+wF5+TW79SzC8s5om/v82b73zBXx+9k75Dx53VhtWX6bpa0jOyMdec3orJysk7q5Y33v6cvz56J/Puam4nCQ0evt0ZfqWRHV99zrZb3mDUGeFbd+Qntpd2I0ijw82j+dvxddVljc5ngE1b9jJm0jxGjxyA2WymU6dOZ+1dXGxev/zyy7z88svnPX7DDTfw448/EhRU/9vedyCB6uqzN9CSU7Iwmkx8+uUyPv/6V2bPvI4+IyY3+7MBzVrmjXVVJKdkXfRzZWbVolQ74+bWyPr/zM+QXN8rMz4+nr/85S+88sorPP/888yYMaNJe2j2PUeWmwmB3S68X+juBSoDVFdc4AWX5hQYRYS7kUP7tmE2m1Fg4VJh76TTMnJ4X3y8PQCoqKjmh2XrGp5XAKOvqL9Ls7G5N7lUwLV3QdWX8MC70OVZ6O1EQ36f60ReFvMe+BKd5vSXlHAs/azXJBxL58En32Dg6Jn40pxhjIzEr82hZHwQvYepiVtrhOp84uOqGTIklF7eyewoAlW/UNzyM8isO+OtFhO5K5MxzenOiFu82PvvU4cIdfSZ6k7OxhIC73Bv9Avwu6Ezmt93c2jaCGKv7YzrymSaO4drakpY8NxCXPWnF+HsnPyzXnM8r5C/LXiXCVNuwnukVzOnUE/p60FwFwvr4kupNHnhcYE9i4zDG5k045OzHkvLON7wb6PJREZWLk5OTpSUlODpWb92ve+++0hJSTmvvVWrVgEwceLE854DGDhwIDk59VvfDz35JjqdttHXVdfUkpNTwNU3PAhAWGgA6lNBds7WfV5BEU+/8B6z55SBs+d5bV1Qc5fp3DTm3Ps5WvXpZfrcvcr8wmKefuE9qqprsLhe0fRaABQ6ut88B81zr/PN8nkMuz3i5CHPUnYsPUbMlN4c2JXYvDZPyjyygUkzPjjrsXN/jxv/3IOLix4P97O/w8mTJ2MwnL/BcbF5PXlyfSCZTPW/rvlPvH7evC4sKmn4t9Fk4uPPl9I/LovIa65s6sc6S1OX+ZLMPUyasYiLrQJr6ixoNNpLngJJSEg46+8jR44wf/58tFot06ZNu2TNtg0ySw2cSAcVUJcDG3fDTQ9eoIoK2LoSVAOhb48WT9Kz11U8NfEepoyJJTEhHmd1MSH+jf/oL6Sioooflq1DqVBw64yJ/P2puxuGCTqUXNbsmhRu8MrjEP803PcVLL0L/C7w2k4hXfjPq3OICT999nX1uu1MnDYfAG8vdx6bfxsPzbuFv76fSml+3QVaapxhaxrxuVHEjAtAuzaLOr0PkeEaTO6B9J7oxI4ldYSPdqZs/YnzzmVZchPZuiuK6dfEEvv5Fg6VgrJbFH102fyW3YlGR4vT+jJsoIH9z6RT7NOT/pMjGBCazKbMZpWNs7MPiz79mGuH+Tc8lp2TT0j3awHQO+m4d84N/PXRO/l+czn7KjY3bwKnKFRodAosRgsX22+MGnQda98aedZjV113H+tO7gmNHjkAPz8vfv5lA05Op8/fffDB2SvFU9577z0efPBBVq5cecFpPvfccyiA/VuW4OHR/LPzOccLCI6uHyFEp9Vw75wb+eujd5JWqObLHy883cY0a5kOi2bJO/fQJci54bGs7DxCYyY11HLP7Pp5Fxzkz1//0/zQUXaaxi3XL+KhL7/kwA0LGOgCpuwVrK0Zw9ygnXzT7BbrRQ6Yytq3XznrsRcXLuKFhYsAiIoI4bmn7mb/oUTe/fBbqqur0evr9zyXL1/eaJsKhYLnnnvuor0bExISUAAHti7B3f3seT107Cx27D4MwPgxQ1jw9Fxyqjux9PC2ln3IJi7zvpFXsO+zpy+6R7Y3oZbIrj3w8PC46CRXrFjRENq+vr48/vjjzJ8/H1fXpi3Xtu1+X5sL8dvgyDY4sgMKqs5/TfUxWLcIvl4ASRHw1CLo7nz+62xIoVAw8+ZrOLLre/73yStWGevOPRY+mA/538BTa8HQyBG4i/H2cueV5+4j7fBynn3yLtzcWnisvzqPvdvLcB8QTowL6EZFEpp5iJ1paiJGd8ZD70tPvyriDjSyG2upYc+SVAp9wrhiuhtKVEROD6R6dQpFF5ic/qquBGYkcajIRPqyNLLV/vSb6mG1BVHvpOOR+28l5dAy/u+1xwno5Nu6Bg3VFOdacA/U49LMfjUKhYLRIwew8beP2PDbR9xw3RiMJhO7du1qXU0nbdu2jW5dO7coxE7RaTU8NO8WUg79wjtvPEFQ4IXi59Jau0w76bQNtfz7zScJDvK/9JsuROHByJl30if5K75ZlY2JWhKWbcbz2on4NPMgSlNERYTw+YcvcHT3D9zxl8kMHtDD6vM6umv4eSF2yvgxQ/hz9SesXvZ+6weXbsUy3xq+vr4sXLiQ1NRU/va3vzU5xMDWe2RO4TDiFtABmCBi7/lRqu8K4+45+Zr2wcVFz5cfn3/8urWixsJ/0uCGdyG2GeuP/n27k3Z4ecvD6yxm0n7LIn9qBL3HuOA01o3MH3aye2Q4Q6aG0e8KNzwLM0i7wI6eYUc82w5EMfm6GCJ/K2BwWBFb/1kHjQ0Pp3Jl0GRfNCV1TPpbKCjU1JUo6DImirBFey44jaby9nIn+eAyAgNaGV5nKN+RS3yBO31G+zS78+xH7zxzVk+y8WOG4Kx34oMPPuCKK5p5uOwcqampbFi/nkfn39biNrw83Ug59EurwutcLV2mvb08SDn0i1XnnTbmZm6d9CHPfPkNs0f35fekXkyZ6wZbrDYJAGbddh3PPjkHtfr06vSqMUNw0mn57LPPGDVqVKvaj4uLY+OGDTz1yJ2NPv/VJ68QGWG9e9a1ZplvqcGDB5Oamtqs8DqTHS+IVkHXQaDIgNxG9swuM4Zc2HVu5zIVXHU7LOwFL7wF+5rYOdPXx9NKIVbPdDiFI6k6ul43gL76HLbuMJL9exa5Wn+G3+tB2abzDyuefnM5279Lpyy4C1c/H4lu5zHSLxBIqt5RRJcfZvEzu1n62m6WLtzOF//NoiYsjMHDW7/pp9c7tXBFaMFiOn/3oSYpg2XvHcdtZg/GDdY08r6LO7c7tI+PJ3Nun8L3333X6Hmx5vjHP/4BwANzZ7S4Db3eqVUhZs1l2tm5pfPuIlRBjJs5k8i9i1n06ndUXnE9kc2fjZfUOSzwrBCD+t/oLdMnsOTrrxs6MrTUm2++iVar4ZEHbm30+ZaFWNss8y3l5+fX4hADmwWZGSxm4NwvzgBbfgGD5uRrTGBufg+29sR08mOedSDOBBvXQ6Fb/fPGM590gnkPwWwVJNmut+vZ6krYs6UI/eBAjJuSyDWB6UgqcUkKfDXlHN5/7tpIgVKlQnnyt1u7/gg7E1SER9ay7+dyzIBSqUChUKBs+C1o6DHdj5JVGWd17Kj4PYX4Ild6XN+Zi/draitGCg/mcWBPOYYTJ9j+UQJrFyey8u39fPvxCXznDmPu/E64W+kQy+MPzkShUDB71iyqqlq2Abdy5Uo++eQT5t11I13Cg61T2EU41jJtxmyq5WTfCPQDZnLLuDJW7/VlwvggVIDFZMJoMWJq41XN83+di0ajZtaddzZ01miun376if99+SW33zKp9SYrOxIAACAASURBVIfJG9h2mbcF21wQfXQ1HD4GJ2rhl/dAqwCMkLcVCq6EEbWQsAYOHoOCGtjyJwwchkN9k0DKUfh5P1TmwuIlcMgFMEFeKiy1wJdpsHQfbC6AjZ3girD6fi8qf3jlMcho+bWtrWQhb0UmGaPd2L785KUGplL2/llID98M0qrPfK2WoLHhDOzjTVinaPqkp3BobwlbfswgvGsCB4sVeA4IY8Bob/QqJ6Ku70ps9XEMg/syaYwb+ZkBBO3KIqccQIFPb2e0RnAf3pdbHjay4pMMcipt+dnV+PYO4tr3g7jWBlML7xzER+88w93zX+baa67ht99/x9m56eeAt2zZwk0zZtA1Mow3Xn64DSut51jLdDkZe9az+s+t7M5eyo7giQzs2oVr7riT/Yk3M9DVRFHiFjat2UVuVSZblv1G/1uuop8VriVrTJfwYP71j0e49+F/cNttt/HVV181awCDn376iVtuvpk+vbrxxssPWbEy2y7ztmCDIHOFmBvg+caucD/jhxg9DV64dDfL9iwiBl54A15o5LnXT/5/8AWe9+wJi0PAXt1azEmJfPukisKGELGQt2Qr/3MuP+ei0jpy1ifyzfqze5JV/PwnH538d8medNbtSWfdmS+I+4OFn507VQsntsTz2aR4q30ORzDnjqkADWH29ZIlDdcJnXLuhbQWi4X333+fvz71FJ38vViz7P1WjIDRdI61TLsRNmAqDy+ZeuaaBffRL7FwdP2/vbuNYtprfzDtNdtUdM/sG8g5XsCLr31Mfl4eny1eTOfOnc96jV6vp0+fPg1/WywWPv/8c+6ZO5dePaJY+8sHeHk1dimLOEUGDW5HvD05f5QMm6klP6nq7MNHRWXkNjL8lGi9OXdM5ZP3nmPz5s10CQ/n7rvv5sCBAw0jGowfPx6LxUJRURGLFy9mQP/+PPjggwweEMsfKz+mc1ignT9B09h3mW4fXnjmXj5462/s2LGdHrGxPPDAA+zfv79hXldVVXHjjTdSUlLCf//7X2JjYpg9eza9e3aVEGsiGTRYCDuZc8dUhg/tw5vvfMGXX3zBp59+2jCElUajITc3l9S0NACiIkL58O2nuWf2DZccDUS0P/fdPZ3xY4bw7Evvs+ijj/jggw9wcXame/fu6JycyMvNJSUlBQsQ060Ln32wgNtuvqZhdCFxcfItCWFH3buF8+n7z/PSs/P4deVmdu6JIyU1G6Oxhl6xYdx56wRGDuvL2CsHSYA5uKjIUL79/DVyjhewYtWf7NoTR1JKFgZDFTHdgrhtxlhGDuvLVWOGyLxuJgkyIdqB4CB/7p1zI/fOaf7NNoVjCQr0Y+6sacyd5dh9AtoTOUcmhBDCoUmQCSGEcGgSZEIIIRyaBJkQQgiHJkEmhBDCoUmQOaD8giJKS1t+s1EhhLicSJA5oP0HEwnvOZmXXvuYkpJye5cjhBB2JUHmoEpKK1jwj48I73kdLy5cJIEmhOiw5ILodi43M5kJ1y5Cqz69zZGSlt3w79KyCl5YuIj/e/9rBo+9HT/62aNMIYSwGwmyds7bP4j5by6gS+DpMcRXr9/Osy990PB3z5hIFjw9l3VH/SkrcOz7uQkhRHNJkLVzWp2enj26ExN++u6pRcVlwOkAu2HKWJRKJevjD9urTCGEsBsJMgcU0MmH7794rSHAhBCiI5Mgc0C9e3ald8+u9i5DCCHaBdmcF0II4dAkyIQQQjg0CTIhhBAOTYJMCCGEQ5MgE0II4dAkyIQQQjg0CTIhhBAOTYJMCCGEQ5MgE0II4dAkyIQQQjg0CTIhhBAOTYJMCCGEQ5MgE0II4dAkyIQQQjg0CTIhhBAOTYLsMqJU2LsCW7J0sM8rhLgQCbLLiKe7BoPSYu8ybMKoseDmLPeFFUI0McjUaiUKi2OuIJWYUas6Rl737OpGjbvZ3mXYRLHCSEy4q73LEEK0A01aw7u56NDW1bZ1LW1CU1uLu6vO3mXYxKAYD4pcDJhxzI2Opip2MuDtpsHbXWvvUoQQ7UCTgiw2shOq/AJUtY4VZqraWtT5BcRGdrJ3KTYRGexCtzAX8tzq7F1Km8oNrOOu60PtXYawEZVKgdls/40zs9mCSiUnZtujJgWZl7ueKwZG4Hsssa3rsSqfpGOMHBCBt4ezvUuxmXkzOnM8oA6jwv4//LZQojNSrTdz3YiOsXEiwNtNTUFRub3LIP9EOV5uGnuXIRrR5JNHc67rS8ixo6hqatqyHqtR1dQQeuwoc67r26bTUauUGEyqNmvfYFKhUTd9K3BwjCdjhvoQ36XysguzMp2RxM5VvDyvG1pN08976jRKTIa2m0dGoxKt5vLZUlerFRjMbdeRxmBSNmuZvmaoLxu2HrX7XtmGrUe4erCPXWtoqjZf5g1KVCpQKNrHct/ktUHPqABmTuhB73Ur232YqWpq6L1+FbddFUOvrgFtOq3OAXqOl7lRUOlu9baPl3tyosqZYD+nZr1vwd1dGTnSm6OXUZiV6YzEd65i4fxoRvVt3sqkf7QHOccC26gyyEz0oX9XrzZr39aigp1JyPelrLZ5y11TpBf7UWtyopN3089b9+jiho+7mt82HrJ6PU2VnFHAzgPpXD/KMY4E9OvmTlayJyZj2wRNRqIPvaL0bdJ2SzSrO98jfxnO7VdG0Xvd77hlZ0F768loseCWnUXvdSu5bWQkj942os0n6eyk4roR/ry6cSZGs/V6RxpMSv6x6TauvyIQva55W1YKhYIFd3dj1EhvDkRVkO1Wi8lBA61GZSalUzVHOle2KMQABnb3xEvvyr5NXaxeX1GeC/E7ujBzfJjV27YXb3ctY/v7sHDTbZgt1lsR1hg1vLJpJjeNDUGjbt5v5fV5Xfl17T5+XX/Q5ntm8cm5vPLvX3nprq54ujrGocVQfz39oz3Y8XuM1VfTFaU69q/vxpxrrP97aimFxdL8j7li01E++HkveRW1ZHWOpM7ZBYuq7XZjL0VhMqGtqiIkPRl/Fw3zru/PlDGx570uMSEeZ3UxIf7W7e1mMJp58t19ZObkcH33jfg6l7WqvcJKd36OH0N4aBBvzO+HuhUnmPcllvLhDxkcTinHu1qDrlSBxqxAYcUVlLVZFBZqNGZqvSyUqA1MHRXArOtC6OTV8t6nRWV1zH5tLyZ1GaE9stDpDa2q0WxWUJTtTcphf16YHcOEwX6taq+9qakz8ejbeykszGVKdOuX6dwKL34+OoZe3YJ4+Z7eKFtwNXt2QQ1P/SeRwlIjY0fE4O/j3qJ2mqqispZte4+RV1DK0zMjGDvAMQ4rnlJda2Lev/aRV15K514Z6F1b1wnMYlFQkudO0v4g5k3twu0TL93ham9CLZFde+Dh4dGqaV9Ki4LslP3xOazalkReaTU1dUZr1tUsOo0Kfw9nrh4WSb+Y4Au+LjExAWdVkdWD7JQdccWs2ZFNRXVti7eCFApwc3Zi/NBgBsd4Wq22jLxq9sSXcuhYGSVlRrufb7gYtVpBcIATvaPcGRTjibuLdc7XGE0WNu49wcYDeVTVGlt1kYJaqSAy0J0bRwfh53l5XgZgsVjYcaSEtTuzqahq3TLt4erE1cNC6Net9Su0uNRyft9eyIkyI0ZT2yzHCgW46lUMjXVn7ADfVm1M2pPFYmFbXAmrduVSXlXXqmVepVQQ6uvCjVcGEeLftMOKDhFkjibpWCI6xQlCO12eKx4hhGhPdsfX0i26J+7u1u9DcKaOMeTFSUqlql3viQghxOWk/tq7tj/t1KGCTK1WYzTZuwohhOgYjEazBJm1ubi6Ul5l7yqEEOLyV2swY7aAk5P1L+M4V4cKMjc3NyqqjHSg04JCCGEX5ZVm3NxsM7B3hwoyrVaLSq2iulaCTAgh2lJ5lRk3t7btrXhKhwoyAHc3N8qr5ESZEEK0pfKq+qNgttDxgszdk5LyjnHPLiGEsAeT2UJZpaHNu92f0uGCrFNAAAXFRgxGObwohBBtIb/IiLu7Bzqdbe4F2eGCTKvV4u3jTe6J1g1RJIQQonHZBSaCg0NsNr0OF2QAwcGh5BSYpPeiEEJYWWmFEZNZibe3t82m2SGDzMPDA7VGS1GZdPoQQghryiowExwcYtN7lXXIIAMI69yF5CwDJhmySgghrKK43EhZhZmAwLa7/19jOmyQ+fn54ermSWp2625tIIQQov7uEglpdXSL7o5a3XZ3GG9Mhw0ygK7doskvMVNSYb9b0AghxOUgOcuAp7cvPj62v29bhw4yjUZDt27diU+ra7P7GgkhxOXuRKmRonIzUVFd7TL9Dh1kAL6+vnh7+3E4uVbOlwkhRDOVVZqIT6sjJqaHzQ8pntLhgwzqDzE6OXtxKEnCTAghmqqs0sShpFq6d4/B09N6d7RvLgkyQKFQEN09RsJMCCGa6MwQ8/H1tWstCotcFdzAYrGQEH+UqooiYrro0Osk54UQ4lz5xQaOZRjoHhNrl84d55IgO4fFYiErK5OM9DTCgzQE+WpsemGfEEK0VwajhcSMOiprlHSPibXZoMCXIkF2AVVVVRw9GodaUUd0Zy1OWtk7E0J0XAUl9XthnToFEN4lApVKZe+SGkiQXYTFYiEzI4OMzHR8PdWE+KlxdW4/M08IIdqS2WKhsNhIdoGJOmP9XpiHh21ultkcEmRNUFdXx/GcHHJystFpIdhPhZ+nGqVSDjkKIS4/tQYzxwuM5BQacXZ2JjgkDF9f33Z7mkWCrBksFguFhYVkZ2VQVl6Bi16Nm7MCN2clbi5K9DolSgXtdmYLIcSZLBYLRhNUVpsoqzRTXmWhvMqMwWimk78/wSGhuLi42LvMS5IgayGTyURFRQVlZWWUl5dSXl5ObW0dZrMFhQIUSJgJIdovi8WCBVCplLg463Fzd8fNzQM3NzecnZ0daoNcgqwNmM1mudeZEKJdUygUKJWXRyc2CTIhhBAO7fKIYyGEEB2WBJkQQgiHJkEmhBDCoUmQCSGEcGgSZEIIIRyaBJkQQgiHZp/beYo2YzSZ2bAzme1704lLzKWiqg6zXGHRYgpAp1UT1dmHAX1CufaK7ri56Frd7p64LL5dsYW07EJMJpk/tqJWK+nVLYxbrxtGZKj9bz8irEOuI7tM1NYZ+X7VQT77YRfqSnAtBLdaFRqzEmQOt4pJaaFSa6LSy0KR3si0q3owZ/ogfDxbNnTPJ99v4aeVm5nVdzl9AtNQKc1WrlhcSJ1JzZ9pvVhyaBwL5l/P6MGR9i5JWIEE2WWgusbA3Ge/pzC5jOBcDe61sqPdVmrUZrJ966jwhy9ev4WQgOaNBL51fzqvvvc1n9+wEF+X8jaqUlzK0fwQ7v3lMX54Zy7+3q72Lke0kpwjc3CnQqw0vpzu6U4SYm3MyagkMtcJvzQFd/71G7LzS5v1/m9//ZO7+y+TELOzGP8sJkTtZenaA/YuRViBBJkDMxhNDSEWmaOTgYptKKhMh2+6gjuf+pbC4somvy8xvZAhoYltWJloqsHBh0hMSbd3GcIKJMgc2G9/xJOfViYhZidBpTpcci188v3OJr/HYLSgVprasCrRVBqlCYNB5sXlQILMQVksFhYt2U7gcbWEmB0FFWr5Zf0Ryitr7V2KEB2WBJmD2nU4i5rSOryrNfYupUNzMinxrlKzYtNRe5ciRIclQeag9sZl41Yse2LtgWuxgp37MuxdhhAdlnRxc1BxCbk4V6vadiIqV6Jvj6Z/jB5lTTnHliWwr8yXUTd3JtBDgSGvgP0/J5KQAl5DIhh6TQCe1YXs/iqRtJABzH8IfrlrN8nVTZ2eOz0f7M+kyWp2zljLhuI2/XRW41qnIjGt0CbTSomDVXsgsxb8w2HCIIj1tMmkATCdgJW7YEcmuMfCwyPg1DEBQwGs2gXbjkO3njBhIAS28SIqBMgemcOqqKpFbW7jPTJTBQk/56PsG0HvwBoO763BkJTF9gNKIsd3Iag2m4QUC2CheEc6BS6uGLYncyzLgmH7fj5+aH/TQwzAVEbC/lq0nmqHOuunNiuoqTPaZFoRPaBXHfxrDXQZbtsQA1D5wKTx0KcUnnwd/hV3+jmNH1zTF46kwxgJMWFDF90j23kok60HMigoq6bOKKMPWINCocDNSUOonyvXjure8osxbXUZe+lxDu6tpH8/H7q4QFwlVK5LJv6+LvTu1glnKqgC0HoTTAG7t51aoRupaMFOirnSiG0iwbpsOa6Apyto9OBqr6BQQbcQ6OUBL74FMQthqv/JpzzA2xW8JMSEDZ0XZGazhR/WHOKT5fspMljICg7H6OSGRelI28jtm7LCiEdqAe/9sIvBvUJ54MZB9IjqZO+yLsBI/NocSsYH0XuYmri1RqjOJz6umiFDQunlncyOIlD1C8UtP4PMOsDNnZgbuzHAp4AVaxQMujEI85pDZPfsxYgBOko3HGDZ10XUnZqElw9D50QR5qXCVK7lrHWglw9DZkcR7qNFZyph3+dxHEpzpsesrnT1V1KTmMYfS2sIuTWKmFANtUeTWLO0BG2vcEZM9KJuVzx/bGrObuHlIXE7/HAMaitBHQH3DIItf0B6HfhGwrT+oC+D3zZDvj/8ZRCoC+H7zXA0B5yi4Z4x4KeCsiz4aSPQHUq2Q0EsTFfAtXdB1ZfwwLvQ5Vno7QSN7kpXwYrVsLcYylUw5RoY6dd4u491g+UbQTUEoo7BV/HQewLMDoElP8OWKpgxA67yt+33Kdq3s4LMbLbw5DurWJtURHLvwVQGBNqrrsteIaDsP4j05GPsfuln/vXwRK4Y0MXeZTXKsDWN+NwoYsYFoF2bRZ3eh8hwDSb3QHpPdGLHkjrCRztTtv4EJkDpoSVwSCT9XGr5c7eOnpO6oAtS4h13gqT0cCY8MoSSHStZk2wBrTdXvTYQr58288MqMzEvXc0IVU39hPV+XPvvIXh9u46vfjUT/fR4Zn3gzdJ7/2D3LgvXfNqN4tcOUGUykrixitHfDEWbe4iVQHVCFU63enBsW8cLser9cNPn8OHbMLQK7p4H//SDB5zhwf+D574DVwB3MOeD73DQl8Jz/4Gh98PzNTDzEXjQAF9eA6UVsOxrSL8SHusPHh5AASjc4JXHIf5puO8rWHoX+J1bjAE+fBMyp8Cr18Oe72DaM/Cf16B3I+2WVcIv34GxHCZEQi/g0X9C2jiIDAf/32HeEtj3MLjZ+osV7VbDObJTIbYmtYxDYydKiNmAWaOhsHsscaOu4vF3VvHHnhR7l9S46jz2bi/DfUA4MS6gGxVJaOYhdqapiRjdGQ+9Lz39qog7UH/42ZxVTMbxWiyYKdxbRGmVifzfd/Dd20fZ+G4S6QY3ArvX73e5TOnNCF0Wa1ZVYaaGxJXHKTp5jarH9D6M9D3B3nXVQC0JH8SRqOvM2Jl+cDCBbXshcmzn+pXy8QKyjisJu6ILXoBmUDC6Y8mk1zX2gS5vai+YeR3E6iAnF4xqyDoB4aPh/h6wbAsYAErhqCuM94LMrfB1ERxdD+9tAZMT/L4NCkwQGg6dveHKcTBzPMwecHoL2D0WPpgP+d/AU2vBcM4R1hNbYeFxmNqz/u8B18EN1fDmaghopN0unSHMA6IGwfwJMGsy9MmFmGlw1xh4YBTkZ0GuIx5/Fm2mIch+++Mo64+d4PCV47CopTOjLVX5+XH4yqt48u1VVFW3xzWvmbTfssj3CqT3GBf6TnQj88ej7NhWgqZnGP2uCMOzMJO0htItWMxn/NtiwWw+uYYzGzEYFag0AGrCB/igLq3i1H6T2WCmPsfUhPf2wqnWQNWpwRdK88jOAZ8u3uioZveyLIwDohgcrkB7ZSSuh1Mp6xnBkGg1EcM1FKytsMF30/5oOsPNQfDOp7AsD4I8wGwBNHDH9bB/GWyugoyd4N4fnIHULNB0gbunwLyp8OUnkP88BJ08zqsAFBc4uxA1Fv5zE/z4LryddPZzh+MhSw/up96rh95dYG8a1FygXaXi9GNKDegUoDy5ptJpARPIeBziTA1Btmj5flJi+0iI2Um1rx+1gYH8svGIvUtplOlwCkdSdXS9bgB99Tls3WEk+/cscrX+DL/Xg7JNJ1q0clGplOi9XTi/y4uF2hozCg9nfBpu/2XEUGehurQaE1C7IZGDJ/wZMD2AISPhyL/jOJjpQ98ZkcToSjmU2YoP7IAMubArDwp2wE3fwvUz4b6R4HHGScfQK2COCt5fD7/nw8Tw+se1ajieAulK0Ovq/8vPgyYNbayCq26Hhb3ghbdg3xkLgrMOzAWQfcYelJMOgj1A+oMIa1ECHDqWS05xNWUhIfaup0NLiozhs1/b6WjcdSXs2VKEfnAgxk1J5JrAdCSVuCQFvppyDu+/SIxdsJ+QkfRDRRhiujJxkitKQN/JCSeFAqXWRMqGHE64d6Ln6JNJpvfCx7OSoyuzqQWozmfrmmICpgwlsiCZI8VFbF9XiO+kXnikZ+Igl6E1m8kMWOCsfsQm2LgeCt0gbi8kOoOfDkzlcLwMzGYwmQAnuGsabPgCEoMg/GSaxPaEkCPwzLf116hVZcM3u88JmzMOG5rMcFZHZieY9xDMVkHSGY/3HAJD8mDlqe0zA6SfgBlX1O8JnttuI3/WP9aE14iOSw2w70g2hcGhFz52IGyiMiCAoj8qKS6rxstdb+9yzmEhb0UmGaPd2L785IFAUyl7/yykh28GaWf0qVBGBtKzmx5VQCfG3W0iwE2HaVAoIZtyUIwOxN9VB0NCCd2USua3e1nRfwxTX7qOiDllFOeYsOBKxNRO7Pp0L99/5c4t865gimc6lREhuG/ewferjQ015fyYTNI4fw5/W4IZyF+aQtL1oaSsrbL1F2QTKUfh5/1QmQuLl8AhF8AEeamw1AJ/OIOiLwQ8DeOKYWA38PGCdcthcRjcFQMRY2DWRhg76HRQufeHt2+HeZ9Dt+8gLAreero+bI4dgkMFUL4dEmJBkwZL98HmAtjYCa4Iq29H5Q+vPAYZa07Xq4+B9+bD3E/g3zeDVxYcHwUv9oJju85uN9r55LTyQX0YkqKhYD+kV8Ou3TCxN6w7AuXZsDYBuvWQvTpRT2GxWCzvfr2FV5OM5PXpa+96Orwhy3/k25em0TnI66Kvm/3Ut5j+LMfHpmMt6vCPUlGYVHV6b8DbnQDncnKzWrONrMS9px+dKCUlW0dIUA3pcacH4dWG+xIZpaEiPp/MrHP3/FT4ROgoTjlVkxr/Hi6UxpViq2F8q9UmjsUYWPfFvZd87VWz3+br6Qvwdy1r05pKciDZCLFhYMmDJKD3qSs8SuGNNfDgdDh3c6m8AOKLoHME+Ldw0SoqAQ/Ps0Om+gQcOg6ewdDt4ou2zWxI7snS7Kd457nb7V2KaCU1gMFkkevE2gmFUoHJ3F4vPq8l/5yT+RSVkVvU2nbNlB3Oo37VXkP6OccE69IKOZp2ofeaOJFy5t6Xkfy45t3s8nLkGQQDTv3RCXqf8VzCFvAacH6IAbj5waDz+tA3j3cjo43ofWCwT+vaFeJCZIgqIWxIp1VSbdBd+oVtYMk/wON2eNsIN7fPSxZtqsqgQ6eTu0dcDqzcRbECEjbCwX1QpwNXl5OPm6G6FDxGwcRRzYjPStjzEXyzEmYuhT7Ol37LuczZsPpd+K0CXn/v7M3Qiz3X0jaFuIjBvcJZndSfuYNW2Xzatz4Ko40QKFcSA7AudTjDxsTYuwxhBVbeI3OF6KvAsA62lcPVD8DUB2Dqg3DteCg4dk5Xq0txgR7dIDen5d2UlMEQ6Q3HGzn5f7HnWtqmEBcxc+oIvj44gX05dtgl0kuInbI0bihxhV2ZfGWsvUsRVtAGF42pQN/Ir8W9P4zxan50KvTg1MrzdzqnC0/3Ys+1tE0hLiAy1IfXHr+RR/6pZFDIMfp0ikOlaK/nRC8/dSY1f2YOJqcyhEUv3YbeqWWHFuNT8zmanE9NndGmA0Z3JGqVEj9vV0b064xWc/Gost3Vz7mZENitfuWf8wds3Q79b4OUzyGpDkY/AEEZsGIJVEfBlLngq6LhIqTao/Dt11DkBaPvgZiTo4YW7YBtOyAvF6JmwMh+9dOoToQNv0JZDTiXnr0neLHnLtTepd7nkLSEXB1F/5HeuKnKOfz+QQ400vvQZVwvpkxwx5iTz+HVaRw9arhAewo8hndn0v2x+B3cyHtvNH6RtGbowIvcq0xD6PR+TJkTTNmHy/nyFyuORdRO7nc2pE9nfl90Pyv+OEp6Vh5Gk8MvSA5Dq9UwY3AI44Z1Ra1q/pborkOZvPv1Vo4XltO7ezBOco6tzZjMZnLyEnnpP2u56ere3DN9CKoLzLO2CzJLDZxIr++DW5cDG3fDTQ+Cugqq42DpYqhwhvAY4G14PwNG9YWwwbD27/BTBNwz4WRb+bBtNfQbBqUfwdNb4J8/g/92WLweZi2Auq/h2dvB8AtcaYb/vgljXoNYFXx3KxhOjh1pTLrwc2UbG29vXMTF3+ew6shamYjP2Ou5Y3w4waU5HH6t4OzwUXkw/M5eDIqtYceT2zl69GLjd1go3ZFJ0fyBhKlP70Uro0Pp5ZHDgZ317zVs38/HSVDR6Hi+BjLXFGN8PAKNtfd4T97vbNpMJ7vf78xZr2XGxD52rkI0x597U/n7v1dz1y0jGNY/ApVSDsnYQnZuCR9/8yfpOat49aGJjYZZ282J2lyI3wZHtsGRHVBw6nySM4REg4cr9J0Do6fB+ClQYIFrH4IRN8HwwZCTQsONqRT+MPphuHI63P0R9NsGm3fAri+guBr+/Ah2pIFTLuzeAvsXQe14iPUBPGHQVadvY3vgQs+ZLtye+WLvc3RmyovLyU2tpdP4WPqfc3sMzdBudHWupNpioLqoCYdQTAYMxjNfp6PXrJ70CjgzOoxUFF5kT8tsxHihnb5WctT7nQn7yjhewrP/XsXf7r+akQOjJMRs6P/bO8/4qK4zDz937jS1GfUuoQ5CjSKqKKIZAaa5YEgwtvEabm/haQAAGL1JREFUx05sUh2vk+Cssxsn+4s3XpvYCe52MDgYFmxTjU0vAtEsBBJCAkmod43aaNp+mAGENBrR1PB9vujee8555+jOnfue+v6D/N156cdplFU38db6I3bz9FyPTB0GKYtBBWCCiJPt3KYtKujVd5tCaT2/mi5XgLmLlr8sCGISoLQU5HkQ+gikTbamzfoVyEzw2bugTbteRlTYbLdCdnoXaQYosWdPATJH5e4BLCbKduRhWj6ElMUenHyj1tYrU5E0X0PJ3joClmlsmZWEzI0mKV5O2ZeZZJyVE7oghqRYkdIvM8k4286u0oNxL6cwN01LnWoYc7VX2L25mTCbVtmG1wq63LRsARCciftJAilJSmq+Pc2WdbUYADEimEkPBBAQ5Iwx6wK7PiilzqQg5OF4xsarkLsoMOfm8fW7JdZI+o70ziQkboJ1204zPSWWwRH9VTfw3kapkPPM0km88OomnnpoDGrVja6rl17FIkSPAqEQyu7CSj8z4O4DcjkUZIOgBqUalCJUXgGzAWrKuijrIM2uvaLuy90DWMoucPi4keBZQxmqtV6TxUSRpComvbh9zjaK9usJnBtLYrQMaKNwn57AeUNt5+2z1nHsr1nk1hqoOJDJjs/K0V/VKkty7aZDK+I7I47BVHOhwImRPxvDpAgBAsJ4ZFU4zZ9n8Nl7tfg/nsqypz1wmj2WJ5c7kfXfR1n3vxV4LJ3A3Fnya3pnIWcz+fy3J8l2ccdT8mQSt4DJZObLvedImxzX11X5XuPrrSEmwo9v0jtGZegRR2bGquHRcRjKAIe+AIPCTpqNm1n8YyyES64wfhwMGQM5a2DLPmgDynbCmRqISoaMT+BsubVMfZU1YqpR7TjNrr1SwFG5W7w9/RVLKyfWXaLKK5SJD7khQyTyoQBaduXTKXCH2WQNQHsVoxGj0W6oV0x6CxbAYjJhaLO00yrrDjOVu4+zaXU2e9/M5bLJjcAYOb4LhxDnLidw8UjmznVDZlAQkhKCprKCM18VUNAk4h2lQmZWo/GXOdQ7k5C4GXTNegRBwNuzs0aDRO8SGuRJSUXnyD13f0P0+V1wNheq9fDFalAKgBHKD0PlZEjRQ+ZRqCqG7GMQFQWZZ6AlH05nQZwFci9CqQB5xRAZAIkesOkP0DgGSo7DpNdgiDOYn4NFebB+Pmz2h4glsPK3oPWHmSvg5amQkARBarDkwomzMP5nXadN6MIewCgH5SbF3xPDjIb0bI6cieL+ubFEbqtkdGgNh//SBnPu5qe01yqTM+K1hfxwqrNtdLeUL9J2scfQIZ/ZiMEgQ66SETDIBXNRLl+/WUAbwBvpWAwmDG0Ch3wSuP/VYBqz62loBE9BtOmdFdjRO5OQuDkMRjNyudSN7w8o5CJths6/4LvsyFwh9gFY9YCdtJXXD4e/BOtfun4+590bX5YrDsCKqydB8NweqMmFajMkzwW17aGSBcDDn8LUHKhVwKBo2wKMcFi+DWZnAyGgbYC5HuBv29/mKM2uPUDejc17AZOOo/8qYNIfw0lbpaHpWDoFbfbXtNydrTMmyg9d4EC1wjpdamqgqIUunkoBQQCD0YI61At/cx4XWwBk+CZokcUk8m+Lmlm3PJ08gy8PPmStYHu9s94KIiwhIdG7DBAVTRE8h4BnF2leQ6FTQFIF+CfYjt07hJFylNaVve7KDVQEZKKIzPYk6L89x7GcMO6L1PPPl3SYAZlMQBAEZFc9mrGNVr0Cb28lYMRthBeeaoEau71SCxaLDLlKADcFKp3phrTiTWco7liky7aBiYKMalpmRrLghQo+/stl6sOjmDBdT2GwP5qWLOqaQBbiisZFQBDNFJ2txTA1mplzLrN+a2M7vbPbvV8SEhL9jQHiyCR6BiWBU8NITvIk1G8wSQX5ZJ6s49DGQsKic/iuVsB9ZCgjUz1xEtVELYhmaFM+585X8N2RJp54ag4vzmii+lQljXol/uPCiKtVEu4vorGEMiSymqzL9ZSVikx/Oo1nhp5j06etNq0yX5LH5rP/aEuHfeVKQmcG4eemxGzTMGOyPz4uKmRjQvB87SRbtrrxwLzJ/Hr2eJpLCvnql4fISw6j9cURrPy/QZTlVdKsEwi+P4XR/5vJ1gMpdvXOtO+VU9+H44yVtU2UV+uwmKXIEL2FKMoI9teicVH3dVUk7iKCxWKx/M8nB/lzgZmKBGmDZl8zdusm1q6aR0SwY82LvtEja48Cv3HeOJdWcqlIScgwORUnGuwP33loiBwqUnm0loa74jgEnCO9CQ02U36smlrbBJhrnD9BSh2XTjUhxPgSLNSSl2OgO72zO+VW9MgASioa+P3ft3I2txx3T5OkZ9uLmM1QVyNnyugIfrci7aZCVFXWNrHoF2t5/7+X9UINJRzx2VcZuKlk/HjJ+BuuSz0yidvEQPmRUtuxkaITDrLWNpB36G5+toXmvEqy82682phVRs7VkwsVXE92rHfWm1TVNvH479YSmpjNw3OKkMul3lhvo2+Rk7G7kqdeqeXDPyy9rVBVEv0L6RuUkOhF/rk1A5/wQpImFEpOrI9QORkZf38WtS1l7Due130BiX5PH/TIGiFnD3x32rqMTK2xRvXwGQmjU+COh66b4MQ78NlOWLoREm9Dw0xCoofYdeQ8o+cV9XU1vvcIAoQlXmLnkSymjY3u6+rcJDouH9nO3gNZVJlCmPjUE4zx7rwtQHfiE97bcRFlSDLjU0fjWXGE/ftPUdqiwGvwBCZOmUi0l3jNZmHGt+zff5LSFlC4aFALMlxCRjF55gRCXTqZ75f0QY/MFQbPgLbdcFQPc1fC9BTIWAmvvEK3u1UrD0OBo/kNF4iLhorSeyA6vcS9RnOLEbVLDwWSlLglnJwN6Jpb+7oat4AbYePuZ6h+J+/8z2/42+fZdHqSTIXs/McqVr+9F1P8fQwL9SM0OY3Brbt4d0M5ITNT2zkxq83Q5JnE6r/mg616Rj39C5784USEnc/y0OKX2Vc+MHZd9tHQogjOGq4FW9SOhAeXQe7bcOCCg3L1sGsN3S41E5xAJc2gS0hIdMOA0xJToPUewvjJIWSs/YgjdTemtp3bxNH6GAIVWty0V1/vIhqtFoWLKy52x+BEXDUaZIKAACi8k1m08nGiTr3JuxtzOjvLfkj/Weyh8QDRAC2VcOIA5DdAcwOEzoPJyWDOhw0vwoZT0PY+NE2CcYnQcAYO7ANdPXhPh9Rx7YzWwO7X4Hw9jHkWRkfYLnelOaaDI5/AlWYwGsFnMkwfZ6eyEhISEn2EoGLII8tR/O7PrP/yR4x7NMIWtKCe9M25xM5L5MxxRx2C7lF6e+EhGihpbMRE/xf66CeLPRrh8A4Qk0GzE9ZXwfxfwvxR8OmzkNUK8kEw70cQ7AXDH4VRcdCcDmveh2ErYN5Y2LQUdtkCSloa4Mg/wRIPQeXw+h+sw5YNe+HDrTDuxzA7Fj56FPbkW8ucfx2O+8LDv4QUX2uILAlkgwcz6wmPPo0arxibzM8+TSbyntiE3tMYqTpTwoF3svjijSy+fCuHbz7OZffH+aR/W01VY1/XT+JOkfktZPECD/Z/8glnmqzXTMVb2d06hZmBdzoapSP7i61kyEcxZUr8nS9b6AX61pG15MI3a+DTl+FiBLywBhJGw8wZoNRDZS3IL0OtERBBbquuTGHtS6avAacZ1riHzinww5UQbAvsKTjD2OdhxkKYvRiU2VDa6lhzrLHGGisyp9wq55Ia00c3pj8hEvnwEKYsiCbCjhORDQ4habTY5fnt0tGO4ehp3nn+tB1FaYnOyPFO8iOwtYI9u42E/3Aw05ZFM2GaBsvJ86z+wVF2Hum4Eb1vMZdWcfHiwJiP6RcIWiYsfYykvLWs31mMCT05Ww7gPnsmXrfpx8yNFzj06du886ff8s7pSJ59/wN+NGpgLJbr26FFp2iYtsKmWXaVAKhfC2sPQFgEaOgiKr4Bii6A+urb1RlSnrce6s8B8ut6Z4ITqPRg1DvQHAOGr4RJL8JvkmHMj2Hxc3f9Xx5weIYydoQKY1AIoyefJHdH+3D/NtHMI6WcsXt+u9izY6Sx6o6Mfs8QcNIokIkiCtvvSx3kzdifjcJdPMya359F+85Ixob2h0EZA/mb8jmXPIKoqL6uy8BBGfsIS+b8nZc+Wc8TqcPYfjGBeU+5wW3u2ZS5xpDyg2cYPwBHPfrPHNlVTv4HbAuEF34Osiz4qqvmhQBKJVw8B8Zptv/EAMVF4G0vv8XqEK9pjs20DfwaoLQIAsJAHgZL1kPqbvj4V/BqA/zljzAwGiU9gIDPA4NQbM8gc2EKQ2cPwnVHHo3QWTTTo576mMGktRfR/KSMNjsimIa4MFIeDMT8dSbF8QmkjFRRv+cMWz6toe1mxTg9vBjzRBRhXkpUpjpOfZRFZp4Zl0QHtvv2ZvYPRBUxi8KI3fAdh3dEEZ9mJGtXNcR70HKglMbESGbNdENs0pH1VSlFNQb0oivx80OI9JPRWljJmV1VMC4Yl+OXyLwiEpIWwfhkJ+vwjt1yZiqPlXI+x4RPaiixIWbKj5aQnWvGd4IXxu1n2fhOHb6tl9mn82bsdPcb27YS9hEDmbZ0KZEPf8ia/xqP58SXiVRwS8+5oegE54kd8Pe7j5pjZrCYwNxRzKsVvtsFzt6gBBpLQWewqkWbTYAMZHowWEBvhCFjIet92GOTJS7aDJnVDj7XkeYYcPR9KDFAwHRY/hOoyAHd93i4Q+nNuGQDpzcWcHR/PeoREYwMsaV1FM1cl8ehDiKaLXZFML3ReHgTPyecUY8lkaCu5WKBmuE/HcPkSOHmxDidfJj9xjiiLnzHZ785RnrLIH7w1kTGhClwcWRbAgCZt5agcAvF2bXU1NWT+UEu+7brcBmqxdtdBm0NHPyPs1yKCCPtmRhGOJXw0cossiqNtOjqyfzgEkc3XKHK15NBzrV8uSKDb7JMDsqJ+MQrKP3oAllXzIAcvwQFJR/mkFWmZuijESSGKwkYP4iUVO2Af6n2LGbMJv01PUCnkUtZPK2BXSe9uW9GICJW7T+jxYjJ2K6M0QQW843DyaZK0v/vIDUeImaTCbPJNGAljvrAkTVCzjb4Lhcq0+HQQa4H4FND3DTY/3NY9ShsOQfuZtj1ClxsBEUoBDfAx8vgy8MQ/xN4JBL+NgkeHwof5sPoGDh7EMqL4Hw6tOjg/DGovgRZRyHmOVgUb9UcWz4E3joBo0ZbP15/EN58CQ7tgL3HYPYT4PP91SFymh5NQOFFMmtMFGy5TLHcl+HztbaHpqNoprnDOV2IYAZiOFNDfbOJiu3p/Ov18+x98yIFBjcChoh27HYW49Q+lMQE72pOftMC6Ml5K4sLqkFMXepB9UlHtiUAEEQUKgGLUcAlUoOHlxNRs8IYNSecsWNcaN1/ka+LPUhIUgIKQh6MJKk5n2++akITqcHdXSRwRjSps4MZ/3wSacnVHNtVS12X5RowyQTE9kvfRBkKpQAIiArrsm9kAnK51ODoGh2FJ3aw6+BhMnZtJj23GpMYzqxlj7FgyQ9IdjVRc2E/O78+TlnzOQ5t2capwnIKT2xn55Ecmgv3svHNv/Le22/w3uo/8+fnH+bl8254ZH/F9oM5tF45wjdb9pM3AJVn+2Bo0RUGL4TfL7SfPOpV+PsSMPlDkC9UTgPCwMcF0MJz+6FUb50/kwGLPoOp2dCohdBg6zXPVbB51XWbw16Ez1+8ft6V5ljiKxDXClXVEP6fEOjTI3dgQCC6Mup+bxR1bcx5MQQEOW11AuFToghdc4LL3Y5fiF2LYKrCsFgs16O+m40YjB1edDdwoxhnWKIHan0dzVd/b/XlFJdAXLgnKvS3aPt7iKGF2jILmolOuIjWKBfX5pMxUZpVS52LBvXVZq6zlqAoC0fzGzGgAGTIrrYL5M4MStSwtaSZEofl+t8sxsDDjdCR81m5bn57dUc0qa/waqr12DNmEgv/tJ+Ff2qXIXQBP12/gJ92svdrfm07SvrXg/y8p6rdC/TPp8s/8fqxT9yNaU5BENH+ggjecV3Mi3VFF5pjHsHWv97SjLOYGMVg3Vk+fCmfq6u1XfPU/PpXoYwef5rLe7tvtXUlgtl4+U5qZkHfakbQOuOlgoI2ACOGNgst9S2Y+mq0fAB1JHTpZWRXakhK9UJN5wjKCrWIpbyFOiP4yQFE5GoRd3clMjsrr+RyGVoPJaruyg2geyQxsJCB9Hz1N4Sb+EYUChGL0FNRCRTEPeRD3c5C2m85atyeT3aNK3ELBtm0LzuIZt5wLlCaUU1LUCQLXgjD1wVU8VFMmO5mHYd3+C92tNseE/l7SqjW+BGfaktx8sDLvYnzO4qtC0F6+YG2CKDodxHULVhMnZ+P1ouFbFlditvSOKaNVrTPbkMkcLw/g0oqOP+dLaZDWxO1VRqGTfVACWAx0tZsy25qoyQP4iZ4EeqonEyOk2sbOtuwVXOejsp6s62nLSDIzBjbgFajtChH4paRA7ioFYiGpr6uiwRgbjPclEZSeKgnGQpHC1tuE9GZ6GXJzJniRkWRP4HHr1CiAxDwSnRGaQTN+GEsXmlk6wc3imZufLW6w/lJtgzrKIJ5HN/7RuHvpsJkE84UUgPwdVXBmBBC9l2iqKEbMc5vT7JhrYbFP5rIPPcCmiKC0RxIZ8MuGSEPBjm23QMSLs0KE4E+mrtv+LYxUvVdBWdO6DBUmzn6jxyKtALGumbKSy34PTWOBfe54yoaqUyvpqS8Ef2BCsoTAvFzAUVCJA//qpF1qzPZtywA54IK6qclMHu4HFoBi57czTkcsniiulxGbvRQ5o9WoBAdlEND7HQ3dv/xIG/ucMV3tCcat1auHKuiPNENvwgDm984hiEtklmP+6GUpjQlbgHBYrFYvthzjpe25pA1cWpf1+d7jajXM3zzBg5++DQqpeNR3237s/nb6/uIudTH++47imZ2EtG0L4J5y3btoAzzJjJKQWN2BUVX+m6C+pJXK1Mfi+f5R1O6zZu6fDVpyw/g4tb/+x2GSh0lJUacQjT4eto8S2sFnz94BuHfUxinacHk6UZQsPKGAV275QAwUpujo9XTjQBPE5UFZrQRTtZeXlMLJUUmtNGuuPSSEyvI9qIpdxpv/3aJw3ySsGb/waGw5rSxUTi/tw95cxNG5wESt/8exD/vAlPHRHXrxAAmjgznP5Xf0Co3ozb24bBWR9HMTiKa9kUwb9muHdouV3H+jubb7hwzFiq9jMyePKRvK9IDKHzcGNTVeie5ksAuJJK6LifHY7DHtWOf9nPdLk4E9tNbKE299C/sfR8yABcnJXMmDcH/QnYvV0niGmYzgbnZPD53+E1ld3NR8cCMeEq8+3/L/l6mzK2N2EhfokI7rhy6FzHRcElHTU0rVRd11DtSUxooCN27KZVSjl4/EGLA3/u06g2o7Uy9XGvKPzlvBMH5uWiKCnu1YhKA2cyQowdIivAhNsL3pos99kAy1R4mqp2kH1lf0KwwURxo4Nml47vPbEPjqqSpfuBu+ZW5+zF/XSoLJqkQB3hXpalBhaem+xEoNxcVWjcnci9X9EKtJByRmV3MkPDO78hrjizYX8t7qxYQe/wwmsKCXq3c9xnBZGLIkQOMcTKy+oU5t1TWx8OFt3+/kPywNsmZ9TLNChPnwlt44ekpjBgadNPl5k5KJPtYeA/WrCcRcQ1wxS/MDb9QZ1yVfV2f28dkFMg7FcH9kxK7zww8kpbItj2ZPVwrCUdk55WhbzMwLim0U9oNkytDI/344OWFJJ05xrDd29BevgTm/hQj+95B3txM8JmTjNzyOVM8Zaz5zbybmhvrSEJMwDVnVuaqx2I/wrLEXaReZeRcRCu/WJHKvClDb6nsktnDsTQO4vDWWJp1A9gTDGDqKp3Z86+RxIVHMDax80vRHgunxZN9sYzt+7J6uHYS9qioauCv7+3mmUVjEewMBwsWS2eJVJPJzN7jefzji9Pk5pYiqpUIsv62T2bgYm4zIBNgzuRYls1JIiL4zudXsi6W88qbX1NRrsOvTMSrUYHSJH1ndwujYKHOyUhVsBmDM/zyycmkTRh8W7YaGlt5fe1etu/PQa6w3Mw0jcRdwmwGuShn0czhrHhoHPJb2P9XXF7P8lWfMyI+lPunJhDo596DNZUA0LcZ2Zd+gc+3neTJB5JZPGuY3Xx2HVl7DEYTuiY9RpPUM7sbCIKAs1qBi1PPtMYzsq7w4cYMTmUXI7MIqGWitOrqDjFYzDQZjUSHeLFk3nDSJgy+pRdgl3YNJuobWzE7/glK3EXkogytqxrxNr+/6romPt16mo27z+KkUtzUnk+J28NoMlNd18SI2CCWzRvBqPiQLvN268gkBi6llQ00NrdJL8o7QMC6ai3IT3tXnJfEvYHBYKK0Sker3iAN5vcQclGGl7sz7m7dC6RJjkxCQkJCYkAjNTElJCQkJAY0kiOTkJCQkBjQ/D/iuLbavzCyGwAAAABJRU5ErkJggg==;" parent="sS0yLVqc_8xqp_RQtCRq-1" vertex="1">
          <mxGeometry x="141.35" y="134.59999999999997" width="97" height="53.41" as="geometry" />
        </mxCell>
        <mxCell id="MTOQvqBgH8RQE9H4jNm6-11" value="" style="group" parent="sS0yLVqc_8xqp_RQtCRq-1" vertex="1" connectable="0">
          <mxGeometry width="193" height="100" as="geometry" />
        </mxCell>
        <mxCell id="MTOQvqBgH8RQE9H4jNm6-2" value="" style="rounded=0;whiteSpace=wrap;html=1;dashed=1;fillColor=none;" parent="MTOQvqBgH8RQE9H4jNm6-11" vertex="1">
          <mxGeometry width="193" height="100" as="geometry" />
        </mxCell>
        <mxCell id="MTOQvqBgH8RQE9H4jNm6-4" value="&lt;b&gt;数据预处理&lt;/b&gt;" style="text;html=1;strokeColor=none;fillColor=none;align=center;verticalAlign=middle;whiteSpace=wrap;rounded=0;dashed=1;" parent="MTOQvqBgH8RQE9H4jNm6-11" vertex="1">
          <mxGeometry x="58.25" width="76.5" height="20" as="geometry" />
        </mxCell>
        <mxCell id="MTOQvqBgH8RQE9H4jNm6-6" value="&lt;b&gt;缺陷数据集&lt;/b&gt;" style="ellipse;whiteSpace=wrap;html=1;" parent="MTOQvqBgH8RQE9H4jNm6-11" vertex="1">
          <mxGeometry x="13" y="25" width="70" height="50" as="geometry" />
        </mxCell>
        <mxCell id="MTOQvqBgH8RQE9H4jNm6-9" value="数据增强" style="rounded=0;whiteSpace=wrap;html=1;fillColor=#1ba1e2;fontColor=#ffffff;strokeColor=#006EAF;" parent="MTOQvqBgH8RQE9H4jNm6-11" vertex="1">
          <mxGeometry x="103" y="25" width="77" height="50" as="geometry" />
        </mxCell>
        <mxCell id="MTOQvqBgH8RQE9H4jNm6-10" style="edgeStyle=orthogonalEdgeStyle;rounded=0;orthogonalLoop=1;jettySize=auto;html=1;exitX=1;exitY=0.5;exitDx=0;exitDy=0;entryX=0;entryY=0.5;entryDx=0;entryDy=0;" parent="MTOQvqBgH8RQE9H4jNm6-11" source="MTOQvqBgH8RQE9H4jNm6-6" target="MTOQvqBgH8RQE9H4jNm6-9" edge="1">
          <mxGeometry relative="1" as="geometry" />
        </mxCell>
        <mxCell id="MTOQvqBgH8RQE9H4jNm6-12" style="edgeStyle=orthogonalEdgeStyle;rounded=0;orthogonalLoop=1;jettySize=auto;html=1;exitX=1;exitY=0.5;exitDx=0;exitDy=0;entryX=0;entryY=0.5;entryDx=0;entryDy=0;" parent="sS0yLVqc_8xqp_RQtCRq-1" source="MTOQvqBgH8RQE9H4jNm6-9" target="MTOQvqBgH8RQE9H4jNm6-14" edge="1">
          <mxGeometry relative="1" as="geometry">
            <mxPoint x="212" y="50" as="targetPoint" />
          </mxGeometry>
        </mxCell>
        <mxCell id="MTOQvqBgH8RQE9H4jNm6-13" value="&lt;b&gt;特征骨干网路&lt;/b&gt;" style="text;html=1;strokeColor=none;fillColor=none;align=center;verticalAlign=middle;whiteSpace=wrap;rounded=0;dashed=1;" parent="sS0yLVqc_8xqp_RQtCRq-1" vertex="1">
          <mxGeometry x="301" y="7.5" width="88.62" height="20" as="geometry" />
        </mxCell>
        <mxCell id="MTOQvqBgH8RQE9H4jNm6-14" value="特征提取网络" style="rounded=0;whiteSpace=wrap;html=1;fillColor=#008a00;fontColor=#ffffff;strokeColor=#005700;" parent="sS0yLVqc_8xqp_RQtCRq-1" vertex="1">
          <mxGeometry x="232" y="30" width="78" height="40" as="geometry" />
        </mxCell>
        <mxCell id="MTOQvqBgH8RQE9H4jNm6-15" value="&lt;b&gt;特征图&lt;/b&gt;" style="ellipse;whiteSpace=wrap;html=1;fillColor=none;" parent="sS0yLVqc_8xqp_RQtCRq-1" vertex="1">
          <mxGeometry x="382" y="27.5" width="60" height="45" as="geometry" />
        </mxCell>
        <mxCell id="MTOQvqBgH8RQE9H4jNm6-16" style="edgeStyle=orthogonalEdgeStyle;rounded=0;orthogonalLoop=1;jettySize=auto;html=1;exitX=1;exitY=0.5;exitDx=0;exitDy=0;" parent="sS0yLVqc_8xqp_RQtCRq-1" source="MTOQvqBgH8RQE9H4jNm6-14" target="MTOQvqBgH8RQE9H4jNm6-15" edge="1">
          <mxGeometry relative="1" as="geometry" />
        </mxCell>
        <mxCell id="MTOQvqBgH8RQE9H4jNm6-21" style="edgeStyle=orthogonalEdgeStyle;rounded=0;orthogonalLoop=1;jettySize=auto;html=1;exitX=0.5;exitY=0;exitDx=0;exitDy=0;" parent="sS0yLVqc_8xqp_RQtCRq-1" edge="1">
          <mxGeometry relative="1" as="geometry">
            <mxPoint x="307" y="139.9999999999999" as="sourcePoint" />
            <mxPoint x="272" y="70" as="targetPoint" />
            <Array as="points">
              <mxPoint x="272" y="140" />
            </Array>
          </mxGeometry>
        </mxCell>
        <mxCell id="MTOQvqBgH8RQE9H4jNm6-53" value="嵌套" style="edgeLabel;html=1;align=center;verticalAlign=middle;resizable=0;points=[];fontSize=11;" parent="MTOQvqBgH8RQE9H4jNm6-21" vertex="1" connectable="0">
          <mxGeometry x="0.5272" relative="1" as="geometry">
            <mxPoint y="-11" as="offset" />
          </mxGeometry>
        </mxCell>
        <mxCell id="MTOQvqBgH8RQE9H4jNm6-18" value="&lt;font style=&quot;font-size: 11px;&quot;&gt;&lt;b&gt;视觉自注意力模块&lt;/b&gt;&lt;/font&gt;" style="text;html=1;strokeColor=none;fillColor=none;align=center;verticalAlign=middle;whiteSpace=wrap;rounded=0;" parent="sS0yLVqc_8xqp_RQtCRq-1" vertex="1">
          <mxGeometry x="124.85" y="188" width="130" height="22" as="geometry" />
        </mxCell>
        <mxCell id="MTOQvqBgH8RQE9H4jNm6-25" value="" style="shape=image;verticalLabelPosition=bottom;labelBackgroundColor=default;verticalAlign=top;aspect=fixed;imageAspect=0;image=data:image/png,iVBORw0KGgoAAAANSUhEUgAAAbwAAACsCAYAAAAAERnwAAAgAElEQVR4nOzddXQUVx/G8e9u3D1AgBA8waVocXeH4u7SQmmR4qXQ8lI0WClO8ALBCe4uxSEQEmIQd9tkZ94/UhaCS5KN3M85Pc3Ozsz9zSbsszN7516FLMsygiAIgpDDKbVdgCAIgiBkBhF4giAIQq4gAk8QBEHIFUTgCYIgCLmCCDxBEAQhV9DVdgG5WUhsAA+DrvMs/CFhcS9QS8mILrPpQwHoKPWwN8tPIStnnPN+g7VxHm2X9UlUKhV+fn6EhoYQExWFWpIQnanTn1KpxNjYGGsbWwoUKIC5ubm2SxIymELclpD5vELv4PFgE4FR3hS1K4O9WUGsjO3QUYrPH+kpRZ1MRHwQQdF+eIXepbBNKZq69MTRqoS2S3un+Ph4Hj58wFOvp9hbmWJrboyFiRG6SnEhJiNIskxcoorwmHj8QiKxtbWjdJky2Nraars0IYOIwMtEyWoVe+78ze2Ac9Qs2hLnPJVEyGWSZLWKBy+ucvHpIao7Nad5qV5Z6rUPDw/n5MkTONpZUqKAHSaG+touKVdJUUt4vwjjoW8wLqXL4OzsrO2ShAwgAi+TqNRJrDw/GR2lLo2cv8NQz1jbJeVKcUnRHHmwGRN9c/pWm5wlQu9l2H1TvAD5bS20XU6uFp+o4uQtL5xLlaJkSRF6OY0IvEwgyzIrzv2Cnq4+TVy6oVCIS1TapJbUHLi7FhN9C/pWm6TVWiIiIjhx4rgIuywkLlHFyX+fUKpMWUqUyJqXv4UvI955M8GZJ+7EJ0eLsMsidJQ6tCzTl8Cop1x9dkyrtVy9cplyTnlF2GUhJob61CtflFu3/iUxMVHb5QjpSLz7ZrCYxEg8Hm6iiUt3EXZZiI5Sl6aleuB+5y+SUhK0UkNISAgJ8fE45bXWSvvC+5kaGVDQzhJPT09tlyKkI/EOnMEueB+guH15LI3ttF2K8AZ7swIUsCymtbO8hw/uU7KALQqFQivtCx9WsoAdjx97IkmStksR0okIvAx22ceDcvlrabsM4T3K5f+WSz6HtdJ2UFAw+W0ttdK28HFmxoYY6OkSFRWl7VKEdCICLwPFJEaQmBKHvVl+bZcivEd+yyIEx/qjUidlartxcXHoKBUYGehlarvC57EyNSI8PFzbZQjpRPt9snMw/8gn5DFz1GoNkiRxcK8H/16/jbGxMVbWllSrWQW1Wo1KpWLJvBX06NeVRs3qZ3ptPk+fsWT+XxQuWogRY4ZkevuQ+l2ejUlenkd5U8g687qhJyUlYagvwi6rM9TTISkpcz8MCRlHBF4GilNFY6xvprX2Y6JjGdRzBA2a1GXCtLHo6uoSFhrO0D7f02tAN1q3b0FYaDiqJJVW6itU2BFdXR1io2O10v5LxvqmxKmiM7VNWZZBfHeXIR74RhEQlrYjUqJKTb1y9pgafd6HDAUKMaxbDiICLwNJslqrHRLm/74YAwN9Bo/sr1lmY2vNsrULOXboBAqFAiNjI63Vp1AoMDPX3gcCTR3oIElqbZchpIPTd4KYsekuLsVfjYt5+d/US5JbJtSkeH5xVp2bicDLoaKjYnBbu5V5y35/6zk7e1uatGykeZyUlMSsqf/jzr/3GD1uBNVrVSUpScWKRX+TL38+Lp+/woBhfXEuXYITR07jvmMfYyaM5M9ZizAwMGDWvGkkJyezY/NuAOzz2LF5/XYaNq2nCdunT7zx2H8Mryfe5Mlrz48TR6Gjo5M5L4aQK5y5G8zMLff4cURxCjuaAHDuUigPvaKIjRcfaATRaSXH8vF+RlJiEgUdC7zzeRvbV/d+Xbt8k8Ej+9OkRUPm/rYQgO2bdvL4kRddenSgWImiLJ3/F7Iso2+gzwH3wzx94sMfC2fi+fAxB9wPo6Oji/cTHw7vO0qxEkWZPX86f0yfR1hoOElJKubNWszgUf2Zs2gm+3cfwm3Nlkx5HYTc4czdYH7dfJfRw4ppwu785TC27/GjbRMJeyvx2V4QZ3g5VrIqGeCTLql+W6c6dva2OJcqwV+uqwFo3roJterW4MHdh9y9fR9VsgodHR2KlyiKrq4OjZs3AMCljDPhYRGYmZuS39EBSZYoXc4FAAtLc8JCw7l98w4xMbG479gHQLPWjdHTE4MjC+njfWG3zd2Xtk0krCzEd6VCKhF4OZRzqRLo6enx+JEXFSqX+6RtFAoFkjr1JltdXR1WL99A4+b1qVmnOqeOnXnnNsoPTF2jo6ODLMsEvwjB0sqCjl3bff6BCMIHnP1A2LVpLMJOSEtc0syhTExNaNupJev/3vTWSBGJiUmcP33xg9vP/W0Rjk4FqNuwNgpevWl8qMfam0+9XLdYyaIcPXQCXx8/ANRqNQf3eHzO4QjCW87eDWbG5ruMHvrusLO2FGEnpCUCLwebOXcqlpbm9O40iIf3HhETHcu92w/YtXUPVWt+gyzLxMbEEhERCaR2XklMTESSJPT19di78yA7Nu/m/OmLPLr/mKOHThAdFU1KiprExNR7k+Jj44mKTB2JIiY6htiYuP/2pSImJpb4uHgqValAxW/K0bJeRyaNncGgHiMo9d9lz7iYOCIjxEgWwud5GXY/DC1G4UKpYXfhShjbdouwE95PZ/r06dO1XUROFRDlRVCMH8XsPu2SYnrT19enQ9e25C+Yn+Mep7h57V+sbKxo2bYpOjo6eD1+SrHiRTExNcHExJjQkFDqN65LUmISrTu0QJZlHJ0K8l2vjlhYWdC4eQOePH5Kk+YNiYmOQZIkLK0syZc/L2q1hLGJMcVKFEVPT5enT7yp26A2kiTh6FSQVu1bYGdng1otMeLHIRRyKkhoSBj6BvoUKuyIoZEh5hbmHz+oDPAo6AZO1i7YmxXMtDYTEhII8PejaD6bTGszpzh371XYFXkt7Lbu9qVNk3eH3b1HCppWyo+NucFntRUUEYOukSn29vbpUrugXWI+vAx05dkRbgeep2mpHtouRfiAPbdWUa9Ye8o41Mi0NsPCwrhy8TyNKxXPtDZzgnP3gpm+KW3YXbwaxpZdHz6z275XyfyBVSme//Pu+7ztFYiBdV5Kly791bUL2icuaQqCkC2cuxfMNLd3h13rRuIypvBxIvAEQcjyXoVd0XeGnY2VCDvh40TgCYKQpb0edkWdTAERdsKXEYEnCNlcXHw8uw4cYed+DyKjovELeJ5u+77v+YSFK9d/cJ2kJBXb3A9y+uLVdGv3pfP3Q94Zdpt3irATPp8IvBwsLjaOF8+DMr1dSZKYNHYG4WFiHrGMFhIWTvt+I8ljb4uTYwFG/TKT0VNmf9U+IyJf3SYSERWNr3/gB9d/6uvHH65/ce/h469q903n74cwdeOdNGF36Vo4m3emdlARYSd8LhF4OdjObXtY6brmnc/FxsSSmJCoeRwaEvZVbcVEp92fSqVCkkQH4Iz214ZtfFOuNN9WqUTlcqVZu+h3ShRx+uL9paSkMG3uYs3jb6tUYv6vEz+4jUvxopQsVuSL23yX94Xdpn+eibATvpgIvBxKlmV2bd3D9k07iY+Lf+v5rRv/ITwsAkg9I1vwu+tXtbdl/XbNDeRKpZK5rrOwtRP3mGU0fX09Nv6zh3/vPgBAV1eXzm2bA5CcnMxej+PExMaxccceNmx3J+m/uQ9lWebwiTOs27qLnfs9UKvVJCQkMnrKbI6ducD+IyeJT0ggJCyc/UdOatp78NiLjTv28LfbdoJCQjXL03MarMPXAvlh+Q1q1bAhKjqZG7cjOHjshQg74auJwMuhLpy5RLfenTG3MMd9x/40z+3deYA/pv/Jvl0HuXbpOpPHzuDIweNsd9tJZEQksixz6dwVVixahfuOfciyjCzLXDx7mSsXr3Hv9gMW/OHK40deALjv2Mf/Zs5n764D3Lp5h9iYWLas307MaxO7XjhziZVL1rDdbadmlJbEhET+2eJOcFAIB9wPs3zh38TGaHcy2OxmcM8u5M+bh2rNOzN68izCwiOpVLYUsiyz8Z89dOw/ipnzl+Ll84yJs+bRa+TPAPzhupLTF67Sq3NbXFdtZO3WXSgUCiqWLYWxkRFlXEoQExvHhN/+ZM6SlQA8euJNz+E/8V3b5qSkqOn7/YQMOaaF7o8ACAiM4/T5YE6fD2abuz+1qoiwE76OCLwc6oD7Ydp1aUOv/t1Yv8otzRiYlatWBKBS1QoUKuxItW+rYGRsRPVaVTE2MWal6xqMTIzoO7gnbmu2sOCPJXg+fML0ibP4a/Fqbt+8Q2xsHKMG/ghAleqVkSSZylUrUsipIOdOXWT8D1OIi0sdZmzNig3cuHaLQSP6IUkSnVv0IDExiQtnLzN2+AT+Wpw6Q8Nxj5MsX7Qqk1+p7M3SwpzT7puYOnYEa7fuwrlWM3YfPIpCoaDvdx0AGN6vB9N//p61i35n98GjBIeGUbRQQVo1rU9KihpbGyueB4VgaGhAHlsbDA30cSqYnzx2trRr9mreRAMDffp164i+vj5WluY88w/IkGNyzGPMqCEODB6QV/Nf/rz6aGkgHiEHEYGXA/n7BpA3f14MDPT5rldHvDyfcvXSdc3z+Qs6oFAqyV/AAbs8dtjnsUNfXw9Hp4IolUp2bd/D9cs32bx+O3Z57Dh9/CwlXYpTrmJZKlWtQLc+Xeg9sAdenk9f7U+hIH8BByytLP+b/id1ZunExCQWzllKt96dUSgUfNerEwF+gRzed4QGTepiY2tNp27taNmuGa3at8Dr8VOtvGbZVXxCAgYG+kwaPYwH5w5RvXIFug8bi3/gC8065qap9601qFUdfX09/AJf0K55I67evMOaLTs/OOPF65cqnQrmp1B+B+YuW8WL4ND3biMIWZUIvBxoy/rtQOqZlfuO/biUcWb9yk2ftG1YaDhKpZL+Q3vTf2hvlq9bxJ5jqftTKBQoFal/Mnq6nzazlN8zfyIjIjUBqFAoKFO+tOZyqEKh0Lzh6unrffpBCgD8s8+D5OTUuQ8d8tqz4+9FmBgb8ejJ2x8cdHR0UCqVOObPx5Cfp5LX3pZhfbuRx84GWZbeWv9NHifPsmrzDn4aNoCqFbUzPqwgfA0ReDlMYkIiMTGxfP/TME1oTf9jEgf3ehD0Ivij25uZmeL54Al+z/w1y/69fvuL6zG3SB278PX9SZJEIafMG6g5J4uKiWHxqo2aS9bRsbGYm5pStVJ5zTqBQSEAnDp/mXbNGmFnY82N2/cJCQsn4HkQd+578jwohEdPvNHRURIaHknA8yB8AwJJTknR9La9cec+cfEJRMfEcvriFWJi47j7360IycnJSJ8QmoKgTSLwcpjtm3bSpEXDNMsqVamAfV47li/8W7PM0NAQz4ePuXXjNoZGhkSER/LE04ugF8E0al6fnh0GsN1tJ1vWb+fmtVsAJKtUqP+bW0+SJJKTU0hJSUndn5EBjx4+5tbNO8iyjCRJJCYmkSevPW07tWL5or+RZZmE+AQiI6Jo3qYpACpVsma+PkmSSPqvQ4vwaYoWcsTAQJ/Jvy9g0uz5/DpvKbvXLcXsv8uYADv2HmLR3xs4e/kaK+bOAGDOlJ9wP3iUtVt3MaxvdyKjY7CzsaJ29W+oVK40y9dtxtzUFP/nLyhdsji37z+i73cdMDUxZsSEGTRvUIeyLiWJionBNyCQAvnyEhkVQ2h4hLZeCkH4KDHjeQ5y/85DHtx9RHxcAuUqltWcXd28dos6DWoRFRnFyaOnqd+4Lj9PGc1+98NMnP4T5hZmNGnRkIN7PBg5dijzlv7OornL2Oa2k2/r1uD7n4fh+fAJpmamxMXE4u3lw4Wzl2nXuTUe+4/Rsl0zxk/9kf27DzFx+liOHT5J206tOHPiHI79uvK/xb/xl+tq5syYj5W1JX9tWIyZuSknj56mYdN6XL5wDUMjQ0KCQsmTz54Hdx/iUsZZy69m9tCiUd2PrvPDoN5YW1mmWdasQR2aNaijefxduxaanzcvn6f5edSAXmm2c1+3TPPzwc2vPkAt/G3SpxctCFoipgfKQGJ6oOwhp04PlJCQiHmxSvj/e4Y8drYZ1k56G+x6mW/rG+NS8tVZ6qz/PaNOtWTsbb7stgQxPZAA4pKmIORIsixz5PQ5po4dyanzVzSXngUhNxOXNAUhB1IoFLRt1oi2r91HJwi5nTjDEwRBEHIFEXiCkM28vO8us4VHRHLx2r9aaVsQ0oMIPEHIZkZPmZ2uc959qhPnLjFp9vxMb1cQ0osIPOGLJCWp8Nh/9KPrpaSkcNzj1DtnbBA+X2h4BOu37+Zvt+3vfH7tlp2an6NjYnH7Z89Xtff6/jq1bsbxnR+eDFYQsjIReDmYJEkcPXQClwKV6PfdkHeus2ndNhwtS+K2dmua2Q0+RJZl1q90Y+SAHz+67u7t++j33RCio2M+q3bh3VZv/odR/Xvxt9t2zVQ/L7n9s4dtew4SERlFYmIiIybM4HlwCFGvvfYBz4O488ATlUqVZllKSgrPg0J44v1Ms3z9tt3s2HeYiMgo1Go1sizjF5j2zPJ5UAg379xPsz9ZlvENSJ009uGTp4SIiYCFLEIEXg6mVCpp3LwBZSuU5rjHKR7ee5TmebVazXa31E/w7Tu3xszc9JP2q1Ao6NKr4yet26lbO804msLXSU5O5plfAJPGDCVJpeKf/Yc1zwWFhHL09AX8A1+wYccezl+5waMnT7ly4zbuh44hyzJ/LlvNjdv32H3wKHXa9iAqOoYV67dQuEoDVm7czsz5S6nVuht7PY7zIjiEY2de7c8v4Dn9R0+kx7CxmjZnzl/G7oNH8Qt8Tv0OvTl35ToRkVEM/HESnQd8z5wlfzNz/lLK1G0pQk/IEkTg5QIlXYpT7dsqb029c/TgCeo0qAWQZsT85ORkLp+/yvUrNzXDfr0UGhLGAffDBPqlftKXJIlnPn488/EjJSWFmOhYnvn4ERaa+gaXOjh02puFA/2fs9/9kGYAaeHT7DxwhHbNG2FqYkLvzu1Ytnaz5rk8drY0rV8LJ8cC/DCoNw3r1KRksSLU+7Yafb5rz4VrN/Hy8SVvHjuaNaiN1zM//tnvwcAenZFlmfq1qrFsznSG9+vOwWOnyWtvR5N6tShcKHV/To4FaNHw1aguV/+9w6kLlxnerzttmjakb9cO9Pt+AuZmprRv3piYuDh+GNibTcvmUbhgAS6Jzi5CFiACL5cYPnoQe/7Zn2YQZ48DR2neukma9UKCQxk54Eesba0JDHhO6wadiIxMncn8zMnz/DlrIRUql2PT2q1AaqBFRkRSu0IjQoPD0NXVYcHvrsz9bcE769i51Z3jR05hn8eOAd2Gsd/9UAYdcc6zZstOHjx+iuvqjejoKLly8zbXbt39pG3PXLyKgb4+KSlq1GqJvRtW0LReLc30P/ns7QAwMzUl8Y1LpS8ZGxlpft594AgOeew1j+tUr4KPXwBBIWEoFApsra0wNDQAwNzcjMQkMUaqoH0i8HKJeo3qUMKlOCuXrAHg6qXrVK5WCR2dtH8CKxat4tu6NShesiit27fAoUA+Fs1ZiiRJjP9+Mt//NJz8BR0YPWEkkBp45SuWRfe/6YKMjI0oVrLoO2tISUlh3Uo3ChV2JDExibLlS7N0/l8ZeNQ5x6Xrt+jQojE/DOrNqAG9mDdjIk3r12b5us0f35jU31NwWDg1vqmg+e9d8+C9Pv/dh56TZJnI174bNDdLvRyu/44pnj60T0HITCLwcgmFQsGwHwaydcMOQkPC2LV1D526tX9rvaOHTmBl/Wqg4SrVKnPp/BXu3X5A8IsQHArkA1KnEXpz/69+fncNT5/4IEsypcu6ULqsC7/OncJm97XpcHQ53/ptu+jeoXWaZX2/a89W9wOEhUcCqb+DxKQk1Go1UdExKJVKkpJUhEdEUrdGVXbu92DTzr2o1WqOnDrHE59naWaqeP3/AEqlgsQklWZ/rz/XolFdTpy7SMDzIAACg4JpUq8WttZWSJKUZt03L4sLgraIwMtFWndoga29LdPG/UZBpwKaS06v09fXIyzkVQcDA0N9rK2tSEpKIjk5mYjXpn95OU/aSx8bh1zfQJ9HDzzR19fHxtYaG1vrT+4ZmputWL+FE+cucf7Kq1nrk5OT8Xrmh4G+PsMnTMfLx5dqlcpz94Eno6fMwkBfn3o1q7Lgr7XsPHCEGt9UYMa47xk6bhqmRSpy9tI16lSvws4DRzAzNWGL+wEeP/Xh/JUbPH7qw+OnPlSrVJ5bdx8wZups4hMSOXDsFEEhYdy4c5861avwx+Sf6PP9eNZu2cnW3fv5a+6vxMbFcfTMeYJCwjh7+RoXrt7E1z+QUxeupOktKgjaIMbSzAXUKWoAdHV1GTyyP/+buYDZC1LnRUv577mX/2/Rthk7Nu+i98DuKJVKfH386ditHWUrlMHC0oI1KzYy9pfviYyIIjk5maQkFQYG+hibGBEaEoaVjRX37zxER0dH074syyBDIaeCFC1RhOH9RvPr/yYTGxPH5QtXGTi8bya/ItnL0D7dGNqnW5plenp6jB85iPEjB6VZ/vzOec3Zdr9uHenbtYPm8YRRg/lhYG/UkhpTk9SZCLq2a0nXdi012+9c4/re/S3/34w0z40a0IvBPb8jSaWir+mrdhbPmgKzXq336ILHlx66IKQrcYaXg0mSxJmT5/F64s350xdRq9V07dWJsb98j4WlOUEvgjl57Axlypfi4J7DxETHMnLsECpULs/gniNZ8IcrefLa075LGwwM9Fm1aSm7t+/hu9a92bf7IHkd8mhuPu87uBe9Ow3kt8lzKFKsMLExsTzx9OLi2cuUcCnOmRPnkGWZJavnExEeSd3KTVm+8G969u/2kaMQPseb35e9+djIyFATdl+yvzcZGOhjbmYqvqcTsgUxH14Gys7z4UmShEKheOuNTJZlZFlGoVAgy3Kajg+SJKFUKjX//9j+P7ZOZsmp8+FlV2I+PCGjiEuawju9L4xeD8E3w/DlNp8SZFkl7ARByD3Eu44gCIKQK4jAEwRBEHIFEXiCIKQRExuXrusJQlYhAk8QspnAF8HMXrSCjv1H8eDxu8cjnfGnK31Gjef81RufvF+/gOd0GjCKUb/M/OB6waFh9P1+Aj2Gj/3geoKQ1YjAE4RsxiGvPS0b1WPfkRPMXbrqree9fHyZs2QVSSoV31ap9Mn7LZg/HxXKlProeva2NtSrWfWzahaErEAEniBkQ8ZGhnRs1ZTNu/Zr5p57afm6zbRsVBf9z5iWSZZl1Go1JsZGH1+Zd/eyfbkPQciqxG0JgpBN1axSEb+AQBatXM+8GROB1BnR1WqJfHnsiIx6NZSXj18AqzftwMmxAMfPXqR/t440qlMTgH0eJ7h++y66unrsOuBBuVLOBIeG8cfilajVahbNmsyl67f4YdJM1iz6ndIl3753cN3WXYSGR3D28jUc8+dj0W+Txa0nQpYj/iIFIZtSKBT8OLQ/f7vt0AwgvWL91reGIZNlmZ7DxzK0TzcGdO/Ej0P70bH/KAKeB/H0mR9zl61i6tiRTB4zjG+rpl4Ctbe1oXxpZ3z8AwCoXrk8YRGRJCS+Pc3P1X/v4Bf4gp+GD2DH34tYv82dfUdOZPDRf54UtRhfQxCBJwjZWttmDXHIa8+ydZuJT0gg4PkLShYrnGad67fv8eDxU/LnywNA5XKlsTA35cS5S6zftpvSJYtrzsaKOhXSbPfmGdr7ztj2eZzgRXAIbv/sYfveQ8ybMQHH/A7peZhf5cq/YKinRz5rQ22XImiZuKQpCNmYjo4Oowf3YdrcxZgYG9G3a4e31omOjiEhMUkzJJxCoSCvnS2JSUn4+AW8cw67zxETG4ettRU9O7XVLEt6zySyme3qv+Dnp8/q0dUxNfq64xSyP3GGJwjZ0Osj4Pbu0g4FCg6fPEu1SuX/e17WTNdU2rk4SqWC0xeuaLZJTFJR/9tqVCjjwvEzF0lISNRs95JSqdAEV3JyMgmJiWk6pbxctcY3FVi5cRtPvJ8B8OiJNyfPX0r/g/5MV/8F3//Czsb87amwhNxHnOFlMzFP7uK/YxmISTVJiY8lKSKUsr+uw8A2r7bLyTRx8fGcuXSVew8fEx4RibWVJcP7dadqxXIABDwP4s59T6JjY/EPfEEBh7zMmz6BsdP/YOFvk7j38DH9unWkWOFC9O/WkQ3bd9O691DaNmvIsTMX8Pb14+7Dx1StWI5h46YzafZ8DA0N0dXVZcfeQ5Qo4sQT72f4+gfyIjiE9i0as3brLsrVb0OV8mXI75CXjUv+p9XX6OotEXbC20TgZSMxnrd5umom5Tu0wSyPvbbL0SpVXDznl/0FgJScNS6fZRa1WqJx3Zo0rlsT6b/TrHEjBmFgoK9ZZ/2SOcCrM7YhvbvStH5tbt17QP1vq2u+57MwN+PyoR0cP3uRfHnsaVa/NpYW5tjZWANw6dB2Al8EU//bajSp9y1VKpRFpUpmQI9ODOjRCaVSiZ6eHgc3/83Zy9eQ1BJ1alTRag/Nq7fA11efVSLshDeIwMsmoh/exHvNbKr17YFd8WLaLkerkuLiuLZpOxZlyxDvH/jxDXIYczNTzM1M0yx7ffb6l51T3uRUMD9OBfO/tVxfX5/mDeu+c5tSJYpRqkTq39vLy6WGhgYUKpB2PwqFgjrVq3z6QWSQq7fg2TN9Vo+pjq0IO+EN4ju8bCDq/nW818ymev9eIuxi4zjjugKlnTWWlcppuxwhC7l2W4Sd8GHiDC+LSwzy5/GSSQDc2rVXy9VoX7S/PxblymBZoay2SxGykGu3ZXx8DETYCR8kAi+LS46JQN/MlJoDOmm7lCzh1MJ1mDmLWcKFV1LDTpzZCR8nAi8bMLG1xapA7umF+CG6JibaLkHIQjRhN7qGCDvho8R3eIIgZEvXXw87CxF2wseJwBMEIdu5flvmqbcIO+HziMATBCFbuX7nv7AbU12EnfBZROAJgpBt3Lgj8/RpatjZWYjBoIXPIzqtCIKQLdy4A9FR+qwRYRVNxPMAACAASURBVCd8IRF4QrYlSxKS6u352YTsLUUtc+ZCFM+DXg0ZF/Ai9eeDM0XYCV9OBF4GUogrxhlGliRCz1zExMkFA/uvnXtNRqEQv6usonklB7yDYiH81bJW1RwY2qIY9pYi7IQvJwIvAxnoGpGUkqDtMnIcWS0RcvoC+hZ5KTp4Kkqdr/szTkpJwEDXKJ2q+zQKhSJT28tOOtdx1HYJGjLid5WTiI+1GSifRWGCY/y1XUaOIqvVhJw+j4GVA8UGT/vqsJNlmeBYfxwsCn985XSkq6tLckpKprYpfL5ktYSurjgvyCnEbzID2Zk6kKxOIiYxAjNDqy/eT4S3D1c2H0jHyrIvdWIiRgWLUXTgFBQ6Ol+9v9DYQEz1LTDWN0uH6j6dqakpCUnJJKeo0dP9+uMQMkZkXAJFLC0zpS1Jkrh8+TJ6enoUKlSI0NBQXFxc0mXffn5+mJiYYG1tnS77y65E4GWwCvnrcifwEjWLNP+i7Q3zFKRwn5/Suarsq0iFVlhVqoVCmT4hcSfwIpUK1k+XfX0OpVKJtZUlQRExFLDLnDdU4fMkJacQE5f4SSFx69YtJk+eTHR0NPXr1ycgIABJkpgyZQpOTk4f3V6lUjF8+HAGDx5Mv379cHFxITY2loMHD371cXh4eNC2bVuOHj1K7dq1NcujoqI4ePAg06ZNo0OHDjg4OJCcnMzx48cZM2YMjRs3/uq2sxoReBmsTrG2LDkzjsqO9b7oeyI9M0tsqjXKgMqEuKRoHgZdZ3yjwVppv3iJknjevyMCL4t6EhCKo6PjJ13SLF++PCVKlMDHx4fp06cjSRIdO3akZcuW3Lt376Pb79mzB1mWqVq1KkeOHCEmJobixdNnkPSmTZtSqFCht5ZbWFjQtWtXevbsSatWrahVqxYAvXv35syZM1/U1rp16+jbt+9X1ZuRxHd4GSyveSHKOtTg9GN3bZcivOH4ox18W7gVlka2Wmnf0dGRxGQ1oVGxWmlfeL8UtYRXYBgupUp98jY6r11iVyqV1KtXj/v376NWq9Os5+Pjw/379zWz0QM8ffpUs32+fPkoXrw4fn5+muefP3+OSqUiKCgIHx+fNPuTJInbt28TEBCQZrksy9y7dw8/P780tb1OoVCk6ZQjyzJmZma0adNGs8zPz4+7d++SnJysWRYbG8vNmzfT1HLjxg2mT5/+/hfoNXFxcYSGhuLn50d0dLTmOG7dukVgYMZN6pwugffs2TNGjBiBrq4uW7duJTY2Y/4BJyS83eMxNjYWNzc3dHR0GDFiBK6ursybN4969epx4MCXfe/1rna+RrtyQwiMfMot/3Ppul/hy132PkJcUhTNSvXUWg1KpZIKFStx8cEzYuITtVaHkJZaLXH+njf5CxTA3Nz8i/ahUqnYv38/TZs21YSNJElMmzaNCxcusHLlSpo1a0ZKSgrHjx/n3Llz3L17F1dXVzw9PenUqZPmTGnZsmUULFiQLVu2MGPGDL755huOHz8OpAbhL7/8gqenJz169GDu3LlA6uXK3r174+vry+rVq/H29v6kum/fvs21a9fQ09NDlmX+/PNPzp49y5o1a2jYsCGJiYl4e3vTpUsXIiMj+f7771m6dCkpKSkcPnyYoKAgXF1dOXXqFO3bt2fEiBEAHDlyBENDQx49esTZs2cpVqwY06dPp127dowfPx5/f38mTZrE48eP6dq1KwsXLvyi1/1j0iXwChUqRKtWrTAxMaFr166Ympqmx27TkCSJJUuWvLXc1NSUHj16IEkSbdq0YdSoUYwdO5YDBw58ce+q33777WvLTcNA14jhtedw3fcE131Ppuu+hc8jyxIXnh7EM/gmQ2vNRlepp9V6HB0dKVe+IqdueYnQywLUksS5e94YmlpQtVq1z97e19eXOXPmULFiRerWrcuuXbs0z+3btw8jIyNq1KjBsGHDOHr0KAcPHqRhw4bUrFmTMmXKMGrUKEqUKEGTJk002w0ZMgSAsmXLsmzZMvr168e+ffsAmDZtGu3bt6dy5cp069aNiRMnolKpmDRpEm3btqV58+ZMmzYNGxubD9a9evVqpk6dypgxYzTLjhw5QmxsLDVq1GDEiBFcu3aNnTt3cuPGDVxcXKhfvz5dunTh4MGD6Orq8t1332FgYMCoUaOoV68eFStW1JzFNmnSBJP/pvaqXbs2zs7O5MuXj/Pnz/PHH38wZcoUOnXqROXKlenatSvjxo1768w4PaTbJU0dHR2Uyle7i4mJ4caNGyQlJbFnz563Ts+joqK4d+8ehw8fJiUlheTkZLy9vXn27BkAYWFheHt7ExERgVqt5qeffuLcuXN4e3t/9IVQq9UkJCTQtGlTIPU0/ezZs+zbt4/4+HjNer6+vuzatYuTJ08iSRIAhw8fZt68eXh7e+Pn54e3tzchISEAmscvT+29vb3x9fXl0qVLmrpjY2PZu3cvp06dSnPJwsYkLyPr/IlXyB123VxOZHzIF7/WwpcJjX3O9uuuBEX7MbLOXMwNs0aPtaJFi1KuQkVO3fbCPyQyzd+NkHkiY+M5e8cbQ1NzatT89ovuv3N0dGTEiBGkpKQgSRLGxsaa544ePUpKSgovXrwgPDyc8+fPU7169Xfu5/W2dXR00NHRwcEhdYAFS0tLzVWoo0ePEhcXx4sXLyhXrhxnz55FoVCwc+dOihYtqtnXx85UBwwYwK+//sr+/fsxNEy9uf/kyZOo1WpevHhBcHAwx48fp0GDBnTs2JEffviBRYsWce7cOVI+8faa14/J2NgYR0dHDA0NsbCw4OjRo8TGxvLixQsqVqzI6dOnM+TfQYZ0WvH19WXIkCEkJyfTqFEjnj9/zrBhw/Dy8uLMmTN06tSJUaNG4efnx8mTJylXrhx79uzh1q1bDBgwgLCwMHR0dBg6dCjVq1dnyJAhxMbGEhkZyd27d8mfP/87r0nHx8cTHR3NyZMnMTQ0pGnTpqhUKiZOnEjHjh3x9fWlYsWKXL16lcePHzN+/HhWr17NlClTOHLkCL/++ithYWEkJSVx9+5dSpYsye+//44kSaxfv57Y2FjKlSvHo0eP8Pf3p23btnTr1o2nT59SsGBBRo0axa5du2jbti0zZsxgy5Yt/PXXX5r6bEzyMrreIk54bmfrtYXks3CiuH158poXwsrYToz2kc4kWSI87gUvon15FHSDsLjnNCrZjTpF22a5m4mLFi2KkZERd27f4rb3c4o52GBnYYqFiRFKZdaqNSeJTUgiPCYenxcRRMUnUtLZBWdn5zQf3j+Xqakpmzdvpnbt2jRu3JgaNWoAqR+8o6KiNI8BQkNDP3v/r//tSpKEUqnU7PPl10mRkZFf9NWSsbEx33zzjaaduLi4t+o9deoUS5cuxc3Njd27d3/wcun7QuvNf3+yLKOjo6NpKyYmJkP+jWZI4Dk6OtKqVSs8PDyYMGECsizzzz//8ODBA5o2bUq+fPmoVKkSs2fP5uHDh5QpU4Y7d+5QpkwZzT4sLS0pWbIkAA4ODpQpU4a4uDhat2793nYPHTrE06dPuXz5MgMGDABg586dpKSkEBcXR/HixfH29mbv3r1YW1trei/VqlWLffv2oaenR5MmTVAoFJp2ypUrx7///guAi4sLRkapPS3r1KlD5cqVcXZ2ZtmyZciyTLt27ejXrx+hoaFUqVKFqVOnMmfOHCxfu49HR6lDY+du1C3egRu+J3kYdI3LPkeIjA8RgZfOZFnC2iQvjlYlqFWkNRUK1NH6JcwPcXBwwMHBgeDgYLy8nvDUM4CYmFjIYuGcU8iyjJGhAdbW1jgWK0nhwoXf27njU6jVas3Vp8qVK/Prr7/SvXt3rl+/jrW1NQ0aNKBPnz40b96cBg0asGPHDkqWLImtrS0pKSnvvXIly7LmCtRLLx83bNiQH3/8kb1795InTx4WLFjA5MmTqVWrFmvWrNH0vFSpVKhUqvfu+11naXXq1KF9+/Y0bNiQli1b4u7ujr29PZs2baJUqVIYGBgQHByMLMvEx8ejVCpRqVRIkkR0dDQmJiaEh6eOD+fj40NCQoKm7jePp2HDhowZMwZ3d3fs7OxYtGgRkyZN+pyX/5Nk6G0JZmapN/MqFAqMjY3T9PIpWLAgAM7OzhQtWhRPT0/NJ4sv1bFjR5o2bUpCQgJ3794F4NKlSzg5OVG2bFkg9ezT3NwcY2Nj7O3tWbBgAY8fP37vPj/0KUOpVJInTx7NeufPn2fJkiXo6elRtmxZBgwYoHkN3qSvY0D1ws2oXriZZplaSkFGXM5KDwoU6Ciz51039vb22Nvbax5LkiQuc6azl70T0+ss4vTp05w/f56QkBD27t1LmzZt+PHHHzl58iRNmjThp59+okuXLpw7d45mzZphY2PDzz//TOfOnfH09OTMmTPExMRw8eJFSpUqxYULF/D39+f+/ft4eXlhYGDA7t27adu2Lbdu3cLPz4+nT58yZ84cOnfuTOHChSlcuDAbNmxAoVCwePFiWrZsSaNGjahYsSJqtRoPDw+qVKmiubwZGhrKjh07MDY2ZsuWLTg4OFCiRAnNMTVr1oxhw4bRvn17rKysGDFiBFOnTsXPz4+BAwcSFBREsWLFuH79OqdPn6ZRo0YULlyYjh078ueff9K6dWv+97//0aZNGzp16oSVlRX//PMPzZs358mTJxw7doymTZtib2/P3Llz6dSpE05OThQpUoSNGzdmzFUYOZ14eHjIlpaWmsdLliyRu3fvrnlcvHhx+dKlS5qfL168qHmufPny8okTJ+THjx/LVlZWmuWjRo2Sp06dKsuyLC9atCjN/l4nSZIMyIcPH37rufHjx8u9e/dOs8zHx0fesWOH3L9/f1mSJHn9+vVyq1atZFmW5eDgYFmhUGjWXbBggdyrVy/NYzMzM9nLy0uWZVlu3LixvHXrVs1zBQoUkI8dO6Z5HBgYKCckJLyzZkEQcqfo6Gg5NjY2XfcZGhoqq1SqNMtSUlLkkJAQWZKkr2ovJiZGjo6OTrMsMjJSTk5OlmU59f33JUmS0jyOj4+XY2JiZFmWP6mGkJAQzX4zQrpdQ0tOTn7rlPn1U3RZltN8Sg0LCwNSrzlLkkTt2rWxsLAgOjqa6OhooqKiuH37tmafurq6REdHExMTo7lv4/W24e3TZIA2bdrg5ubG0qVLCQsLw9XVlfj4ePbt26f5FP3o0SMSExMJDg7W1JqUlIS/vz/GxsYEBQUBaDrhxMXFvfOYOnTowNChQ7ly5Qr+/v4sW7YMAwMxI7MgCK+YmZlpeiymFxsbG/T00l6u19HRwdbWFoVC8VXtmZqavnWlysLCQtML/vUzsTfPmo2MjDS99j+lBltb2wwdu1Rn+qfeKfgB9+/fZ8eOHURHR6Onp4eVlRX79+8nMDCQihUr8ujRI06dOoWJiQnVqlVj2bJlREZGEhUVxd69e/n5559xdHTExMSEgIAAJk2aRFxcHHZ2doSEhFCuXDmcnJxYtWoVoaGhNGvWTPOiRkZGsn79evz9/ZEkiaJFi6bpgluwYEEcHByYPXs2f//9N61bt6ZBgwaYmJgwffp0PD09qVGjBh4eHlSvXp3ixYtz8+ZNdu/eTevWrSlRogTLly9n+/btlC9fnn///RcLCwv09PTw8PAgISGBqlWrYmJiQq1atbh37x6TJ0/m1KlTzJo1CyurLx9DUxAEQUg/ClnO/C8HSpQowcaNG6n2Bfe5CKm3dVy+fJl27dppuxQhi1CpVLi5udG/f39tlyIIWZZWugVKkkRSkpip+nNFRUXxyy+/aL4ozi0+9T6f3EiSJNzc3HB2dn7nwAw5mfi7ED5Xpgeeh4cHlSpV4sKFC5rvzIQPS0xMZO7cuRQpUoTff/+d+Pj4NL2pcjIfHx+++eabNAMGCKkOHDhAxYoV6dWrF97e3uk2lUx2oFarqVatGg8fPtR2KUI2kun9tps2baoZAUX4NDNnzmT27NlpluWWwHNycqJKlSr8/PPPLF26VNvlZBknT56kc+fOacZ9zU2Bp6Ojw+jRo+nRowcXL15EX19f2yUJ2YC40zkbmDVrFuvXr0+zLLcEHsCCBQs4cuRIuswNllPUr1//rcvazs7OWqpGO3r27EmxYsWYMWOGtksRsgkReNnEpUuXaNmyJU2bNsXGxiZX9f40NTVl48aNDB48WDOuqZA6iELBggUZOnQoCoUiV53hQWoX+OXLl+Pm5sa5c2ImEuHjtNJLU/g8hw4d4ocffuDmzZsYGxvj4eFBs2bNPr5hDjNjxgzNLSNZbSzMzBYeHk6FChXYtm0bNWrU4MSJE9SqVStXXto7fvw4gwcP5ubNm188nY+QO4jAy+JCQ0OpWLEiO3bseO/I6rlFSkoKtWrVYtCgQZqxUnOrzp074+zszMyZM7VdSpYwduxYwsPDWbt2rbZLyTQJScksdjtPbPzbY2Rq2yOfEHq2qkCb+qW1XUoaIvCyuA4dOlC2bFnxPcV/njx5Qq1atTh37hzFihXTdjlasWHDBpYsWcKFCxcydFSK7CQxMZGqVasybdo0OnbsqO1yMlxCUjJDZ+xGpVbimN/+4xtkIh//YB55+VPBOR/rZn2n7XLSEP9asrC1a9cSEBDA9u3btV1KllGsWDF+++03evXqxdmzZ3PdG76Pjw/jx4/n9OnTue7YP8TQ0JBNmzbRrFkzatSooZk7Lid6GXYo9WlVv3KWurzv4x+EX2AweWxMKFLgw5POaoPotJJFeXt788svv+Dm5ibe2N4wYMAA8uTJ89atGjmdJEn07t2bqVOn5qpeup+qbNmyjB07ln79+r1zXN2cICEpmWG/poZdk7pZL+z2H7tMqcK2WJoaarucd8rSlzTVaok/1pzG89nnT5KYkRISVHj6hHB89SBsLNN3EFhIfWOrU6cOvXv3ZvDgwem+/5wgJCSESpUqsXPnTqpWrartcjLFnDlzOHPmDAcOHNB2KVmWJEk0btyYdu3aMWrUKG2Xk64SkpIZNtMdGb2sGXZHL1OqiC2WZob4vYiidPF8TB3WSNulpZFlTx3UaokJCw/jExRDzRqlgKzxy01KSmbrjtMAJKoyZmijOXPmYG1tLcLuA+zs7Fi5ciW9evXixo0b6T76fFbz77//4urqmquGlPsSSqWS9evXU7VqVRo2bEipUqW0XVK6yMph98w/mP3HLuNS2AZLs6x5ZvdSlgw8tVpi/IJD+IXE0bVLPXR1v3wW4vSUmKRi0+YTFCtiS0hIbIa0cePGDZYtWybe2D5B8+bNOXDgAGPHjmXFihXaLifDJCYm0rNnT5YuXaqZcFh4vwIFCrBw4UJ69OjB5cuXs/2tGolJKQyf6Y4k69G0XtYLu31HL+FS2AYrcyNtl/NRWe47PLVaYtz8Q/iFxtGlc90sF3YGBlDaJWN6RSUkJNCzZ0+WL1+eZsZr4f3+97//cebMGfbt26ftUjLMxIkTqVGjBm3bttV2KdlGly5dKFu2LFOnTtV2KV8lMSmFYTN3o86qYXcs+4QdZLHAS1FLjJt/kIDweLp0ykJhl6jCbfNxDAyglHPGBdH48eOpXbs2rVq1yrA2chpjY2Pc3NwYNmyYZqLenOTYsWMcOHCABQsWaLuUbMfV1ZUdO3Zw5swZbZfyRV6FnW7WDLujl3Bxyj5hB1ko8FLUEuPmHSQgPIHOHetkubAzNFBkaNgdOXIEDw8P5s+fn2Ft5FSVKlVi5MiRDBw4kCzcB+uzRUREMHDgQDZs2KCZNVr4dBYWFqxbt46+ffsSFRWl7XI+S2JSCsN/c/8v7L7JWmEXkL0uY74uSwReilri53kHCIxIoHOnrBd2RkbKDA278PBwBg0axMaNG3N854uM8vPPPxMVFcXff/+t7VLSzbBhw+jTp0+uH2Hna9SuXZuuXbtmqx6bL8MuRdLJmmF3JHuGHWSBwHsZdi8ik1LDTidrhF1CooqN/4WdS0m7DG1r6NChDBgwINd0r88IOjo6bNiwgenTp+Pp6antcr7apk2b8Pb2ZsqUKdouJdubPn069+7dyxYDOCQmpTBiljvJIuwyhFYDL0Ut8dOfqWHXqWPtLBV2bpuOYWykyPCw27hxI35+fkyaNClD28kNnJycmDNnDr169SI5OVnb5XwxX19fxo0bJwYdSCf6+vq4ubkxZswY/P39tV3OeyUmpTByljsqtQ7NsljY+eaAsAMt3nienKLmpz8PEhKTRMcOWS/sTIx1cP5A2J0685TN/+tGfnuLL27r2bNn1KxZk9OnT+facSHTmyzLdO3aFWdn52w5/qgsyzRo0ICuXbsyZMgQbZeToyxdupTdu3dz5MgRlEqtX9x6S/1+fxERnUARxzxkoawjMTGZgKBwKrvk++SwEzeevyY5Rc3YuQcIjVVlrbBLSGLj5uOYfiTs0sPLYaJmzJghwi4dvZwjrVKlSppxFbOT+fPnY2pqKsIuAwwfPpz9+/ezePFiRo8ere1y3pKilqhSoRSWFmbaLiWNwKBQIqJisvWZ3UuZHnivwi6ZTh3qoKOTNT5pJSQksXHTcUxNMj7sAP7880+srKwYOHBghreV21hbW7N69Wr69OnDjRs3sk0Px9u3b7No0SKuXbum7VJyJIVCwdq1a6lSpQqNGjWiTJky2i4pDQszIxzy2WOVxQJPoVAQFhqs7TLSRaYGXnKKmu7jthAVn0znDrWJiMyY0Uo+V3JyCvv2X8LUVAfnEhkfdrdu3WLp0qXijS0DNWzYkNatWzNmzJhs0XMzKSmJXr16sXTpUjHoQAbKmzcvrq6u9OjRgytXrmBgYKDtkoRMlKmBd+LSEx4/C8XK0oRt/41HmRWEhsdgZmbAN5WKZnhbSUlJmtFU7OwyPlxzs1mzZlG1alXc3d1p166dtsv5oEmTJlGtWjVat26t7VJyvHbt2nHgwAEmT57M3LlztV2OkIkyNfDUkkzpUoVo2DRr3Vd08fxtYiIzZ0aGiRMnUqtWLVq0aJEp7eVmL+dIa9GiBdWrVydv3rzaLumdTp48yb59+7hx44a2S8k1FixYQKVKlWjRogX169fXdjlCJskaX6DlEsePH+fQoUPMmzdP26XkGmXLluXHH3+kf//+WXIUlsjISAYMGMCGDRvEoAOZyNTUlA0bNjBgwAAiIyO1XY6QSUTgZZKIiAjNaCrGxsbaLidX+eGHH1CpVFlyRoURI0bQp08fqlWrpu1Scp3q1avTu3dvRowYoe1ShEwiAi+TDB8+nP79+/PNN99ou5RcR6lUsm7dOmbNmsWjR4+0XY7G1q1b8fLyEoMOaNGkSZPw8vJiy5Yt2i5FyAQi8DLB5s2b8fX1ZeLEidouJdcqUKAA8+fPp0ePHppRWJ48eaK1evz9/cVoKlmAnp4eGzdu5Oeff8bX1xcAPz8/EhMTtVyZkBFE4GUwPz8/JkyYwMaNG9HJIjfY51ZdunShVKlSTJ48mcmTJ1OtWjWtfK8nyzJ9+/ZlypQpYtCBLKB48eJMnz6dvn374ubmRtmyZbX6YUjIOOKjZQZ6+cY2ffp0ihQpou1yBGDkyJFpvi8LCQnJ9PveFi1ahLGxMYMGDcrUdoX369ixI4MGDeLkyZMAeHp6Zrkb04WvJ87wMtCCBQuwsLCgf//+2i5FAFatWkW9evXSLHv8+HGm1nDv3j0WLlzI6tWrM7Vd4f3OnTtHuXLl0izLCTNuCG8TgZdB7ty5g6urKytXrtR2KcJ/GjduzHfffZdm4ODMfGNTqVT07NmTpUuXikEHspDy5cszcODANEPQicDLmUTgZQCVSkWvXr1Yvnw5tra22i5H+E+hQoVYu3Ytt2/fpm3btkDmnuFNnTqVatWq0bJly0xrU/g4MzMzpk2bxtOnTxk9ejT6+voi8HIo8R1eBtDX12fFihVipuosqnTp0ri7u3PhwgUuX778SdvExcVx+vRprl+/TmBgICkpKdjY2ODi4kL9+vVxdHT86D66d+8uOqlkYXZ2dixYsIAffviBpUuXftI20dHRnDhxghs3bhAUFIRCoSBfvnxUqVKFevXqiXtusxgReBlEhF3WV7NmTWrWrPnBdfz8/Jg1axYbN24kPj4eIyMjChYsiK6uLsHBwYSGpg5JV69ePSZNmkSjRu+f/+vN74mErMnJyemjY2z6+fkxc+ZMNm7cSGJiImZmZhQoUABZlvH19SU+Ph5zc3MGDhzIpEmTsLa2zqTqhQ8RlzQF4T1WrVqFs7MzW7duZeTIkdy8eZPY2FgePXrEvXv3CAkJISAggBUrVhAaGkrjxo3p0aMHsbFZYxYQIWNs2bKFUqVKsX37dsaMGcPdu3eJiori/v37PHjwgJiYGK5fv06fPn1YtmwZpUqV0vT+FLRLBJ4gvEGWZSZMmMCgQYPIkycfd+/eZc6cOVSoUOGtmbIdHBwYMmQIt27dYtmyZez45x9KlSpDRESElqoXMpKrqys9evamWPHieHp6Mnv2bEqXLo3itSnKlUollSpVYvHixdy7d48iRYrQuEkzBgwUt6Fomwg8QXjDkiVLmDNnDnnz5cfb24u+/QdpRmd5H6VSiZGRMckqFX5+z2jcuDEpKSmZVLGQGQ4ePMj333+PLKVw9+59PDyOfHSbIkWK8G2tOqhTVKxZvYqtW7dmQqXC+4jAE4TXeHp68tNPP9G/f3/OnT2NpbUdx48epl2Hzh8MMDe3TfTr1xeAocOGc/36dRYvXpxZZQsZLDY2loEDB1KnTh26de+FnoEpg4cOZ9OmzR/c7pdJU1i6fCWGxhbY2Nrz559/IklSJlUtvEkEnpBr+Pj4sG3bNtRq9XvXmTZtGpaWlixcuJCiRYty9vQJTM0sObh/D9917fHON6vt23fQp08fAGb//gfLly2lZ8+ezJo1i7i4uAw7HiF9LFq06KO/pxUrVhAUFMRff/2F28Z1tGvbApR6DBw0hK1bt71zm18mTWHh4qXIssSE8T+xyW0D169fZ+/eYElT9AAACbdJREFUvRlxGMInEIEn5Brh4eF07dqVcuXKsW3btrfCKzw8nJ07d/L9999jZmYGQJkyZThx/AhGxqbs3r2TXn36pRl/c/fu3XTv0RNJlpj4y2QmThgPwC+//KLZn5C1TZw4kcKFCzN37tz3Bt+aNWto3bo1zs7OKJVK3Daso13rFqDUpV//gezY8U+a9SdNnsqCRUuQZYnxP49l2tTJNGnShDJlyrB27drMOCzhHcRtCRns8OHDxMfHa7sMATQzit+/f5+uXbvy66+/Mm3aNDp16oRSqeT06dMkJyfTqVOnNNtVqVKFQwf307RZC7Zu2YKxkRF/r1zB/v37+a5rd2RZ4vtRo5k9a6ZmGxcXF1xcXDh27Bi9e/dOs79bt27h5eWV8QcsfJKEhAQSEhIYN24cc+fOZdy4cQwbNkwzIe/z58958OAB48aN02yjVCrZ5LaeHj37sHvPfnr16Yeurg7t27dn0uSpzF/oigL4+acfmT5tCgAKhYI2bdrg6uqKJElvdYASMp4IvAy2e/duQkJCtF2GwKvAe+n+/fts2bKFKlWqULhwYe7fv4+xsTElSpR4a9u6deuya+cO2rXvyLr167l8+RKej58gydCnbz8WLZr/1jYVK1bk/v37by2/fv06+/fvT78DE9JNSEgIW7ZsoWrVqtSpUwdAM4di+fLl06z7MvS69+jN7j376NajN+XLlub2vUf/hd0YZkyfmmabChUqEBMTQ2BgIAUKFMiUYxJeEYGXwf766y9tlyD858aNG1SuXBmAdu3aMXXqVCpWrKh5PjIyEmtr6zRdzF/XokULNm5YT/fu3Xn02IeU5GQ6derM6r/f/Tu2srIiKirqreX9+/+/vfsNiuo64zj+vXfZdRFCxUwtsw50rKXp2DboQmBMoBo1OgkQiaghrhDBpNMRcDRRQY1BgjRowXHsJK8qSWwUnDFQ3AJ1TLFRX7QEXWoGHSuozerwJ0iKouzKv77AZWRYMOnALrDP5yX37N3n7L2zP+7Ze85NkQXFx5GpU6fS2dmJ0Whk9+7dxMTEDDoHHMfQ399/yGtVVeXokcOsMSVx/Phxvrp8nZ5uO5kZGUPC7tF93LlzZ4x6I0Yi19TCYyiKQlxcHBcuXKC0tHRQ2EH/F9/du3dH3MdTT/2M3t4euh900tv9AOO8kGED8t69e3h7e49a/WJshIaGcuLECWpqaoiNjR1yPB3Lgw33+56qqoSGzqOn2053Vydd9k6eCTM6bevYh5wX7iGBJzzG3LlznQadQ3BwMO3t7dy6dcvp9suXL7Pg+f6lw3x9vFEUhcyMbXzw4YdO29fV1REcHDw6xYsxc+bMGadB5zB79myg//g7k1+wn8zMTBRVg5+vHq3el9WvrqGsrGxI20uXLqHT6Sb9cObd+w/Q68bfAKIEnvAYw32hOSxYsAAAs9k8ZFtDQwNRv36eO/+9zaIly/jmmxYOHvwDAGmpqRQWDr7zrrGxkfPnzw/sU4xfjzsvZs2ahcFgoLKycsi2vft+z/btO1AUhX379tHS3MQry1+mF5VXX1tLSUnpoPaVlZXMnz8frVY7qn0YT+q/bsPPV0/qmpHXqXUHCTwhHgoMDGTRokUcOHBg0CRzq9XKc1ELud3azLORCyk3/xmdTkdaWir5Bf03q6xfn8LRo0UDrzl48CBeXl4kJCS4vB9idCmKgslkori4mJaWloG/v5+3l127sgCF3Nxctrz9FqqqUnT0TyyPjQbFC1NiEseP909NuXjxImfPnsVkMrmpJ2Pv6te30eu1HMpZhY+3zt3lDCGB93/o7Ozivq0LL418fJNNdnY2V65cIT8/H4Dm5maei1pIc+NNwsKf5dTJcvR6/UD7t9/azPt5ewEwmdbw2Wcl1NXVsX//fjZs2MCMGTPc0g8xujZt2oSiKGzduhWAPbm/Y3d2DigK2dlZZGzbOtBWVVWKiz4lNuZFULQkvp5McfEx0tPTCQwMJDEx0V3dGFNXrbfx1uv443srx2XYgdyl+b112rqorrGSmjCfHz35hLvLEaMsMjKStLQ0du7cicFg4L09eVj/c42n54ZR9flfnT7fLDNjG3b7A3Zn7WLlyngCAgIICgoiOzvbDT0QY8FgMJCXl0d6ejqtt7/lb1V/BxR27shkx/bMIe1VVeVY0aesTjBRXnmKpHUpdNnvU14++B+myaLe2oZe1x92vlOnuLucYUngfQ+dti6qv7SybnkY6+LC3F2OGCMFBQVcu3aN5JQ36O3p4udznuaL06cGVl9xJuvdd7h+/TqffFxIU1MTZWVl+Pn5ubBqMdZSU1MpKSmhotyMl9abzMytZL37zrDtVVXl8MeH+FWIkRs3bgAQEBDgqnJdpt7axhSdlkM54zvsQIY0vzNH2L3+cqiE3SSn0+koLS3lpReXoWi0TNEqVFVVYbfbh7Tt6+vDYrGQnJzM4U8+4oczAlizNonY2Fg3VC7GkqIoVFRUEPjjn9DT00VF+V8oKytz+iQNm83GkSNHCAkJ4ca1q/xizhze/M1vMRqdT1eYqOqtbei0XhMi7ECu8L6TR8Mu+ZVn3F2OcAGdTofZbObkyZNkZGQQHx+Pj48P4eHhBAUFodFoaG1txWKxYLVa8ff3Jzc3l82bN0/KISvRT6/Xc73h35w+fZotW7YQFxfHtGnTCA8PZ+bMmQNPPK+urqajo4PIyEiKioowGo2TbikxR9gV7lk1IcIOJPAeyxF2SRJ2HmnZsmUsXbqU6upqzGYzFouF2tpaenp6mD59OtHR0SxevJjo6GiZTOwhNBoNS5YswWKxcO7cOcxmM7W1tdTU1KAoCgaDgY0bN7JixYqBlX0mm3prG1qtF4dyJk7YgQTeiB4NuxQJO4+lKAoRERFERES4uxQxjiiKQlRUFFFRUe4uxaUcYVeYs4onfCZO2IH8hjes/rsxb5IYa5SwE0IIoGEChx1I4Dk1EHYx81i/Itzd5QghhNvVW9vQeGkmbNiBDGkOYbN18WXNTRKjJeyEEK7T3d2LzWbHNmV8Tdq22ew0td7lp0FP8tGe1RM27EACbxDbwyu7tdHzWB8vYSeEcJ0f+E7h8y/+gV4/vgLv3v3+6TiFeybulZ2DBN5DNns31TU3MUnYCSHc4FjB5F1jc7xweeC1trbT2Njq6rcdkdXaQlPjt6S+Np83JOyEEGJScmngTfPzxlur8q9/fuXKt32sjvYO4l/4JW+ulNvOhRBislL6+vr63F2EEEIIMdZkWoIQQgiPIIEnhBDCI0jgCSGE8AgSeEIIITyCBJ4QQgiPIIEnhBDCI0jgCSGE8AgSeEIIITzC/wDbk3ifyozPAwAAAABJRU5ErkJggg==;" parent="sS0yLVqc_8xqp_RQtCRq-1" vertex="1">
          <mxGeometry x="238.35000000000002" y="138.96999999999997" width="115.28" height="44.66" as="geometry" />
        </mxCell>
        <mxCell id="MTOQvqBgH8RQE9H4jNm6-26" value="&lt;font style=&quot;font-size: 11px;&quot;&gt;&lt;b&gt;混合视觉注意力模块&lt;/b&gt;&lt;/font&gt;" style="text;html=1;strokeColor=none;fillColor=none;align=center;verticalAlign=middle;whiteSpace=wrap;rounded=0;" parent="sS0yLVqc_8xqp_RQtCRq-1" vertex="1">
          <mxGeometry x="243.63" y="188" width="110" height="22" as="geometry" />
        </mxCell>
        <mxCell id="MTOQvqBgH8RQE9H4jNm6-27" value="候选区域生成网络RPN" style="rounded=0;whiteSpace=wrap;html=1;fillColor=#008a00;fontColor=#ffffff;strokeColor=#005700;" parent="sS0yLVqc_8xqp_RQtCRq-1" vertex="1">
          <mxGeometry x="373" y="148.01" width="78" height="40" as="geometry" />
        </mxCell>
        <mxCell id="MTOQvqBgH8RQE9H4jNm6-30" style="edgeStyle=orthogonalEdgeStyle;rounded=0;orthogonalLoop=1;jettySize=auto;html=1;exitX=0.5;exitY=1;exitDx=0;exitDy=0;fontSize=11;" parent="sS0yLVqc_8xqp_RQtCRq-1" source="MTOQvqBgH8RQE9H4jNm6-15" target="MTOQvqBgH8RQE9H4jNm6-27" edge="1">
          <mxGeometry relative="1" as="geometry" />
        </mxCell>
        <mxCell id="MTOQvqBgH8RQE9H4jNm6-31" style="edgeStyle=orthogonalEdgeStyle;rounded=0;orthogonalLoop=1;jettySize=auto;html=1;exitX=1;exitY=0.5;exitDx=0;exitDy=0;entryX=-0.004;entryY=0.344;entryDx=0;entryDy=0;entryPerimeter=0;fontSize=11;" parent="sS0yLVqc_8xqp_RQtCRq-1" source="MTOQvqBgH8RQE9H4jNm6-25" target="MTOQvqBgH8RQE9H4jNm6-27" edge="1">
          <mxGeometry relative="1" as="geometry" />
        </mxCell>
        <mxCell id="MTOQvqBgH8RQE9H4jNm6-35" value="&lt;b&gt;候选目标框Proposal&lt;/b&gt;" style="ellipse;whiteSpace=wrap;html=1;fillColor=none;" parent="sS0yLVqc_8xqp_RQtCRq-1" vertex="1">
          <mxGeometry x="492" y="145.51" width="80" height="45" as="geometry" />
        </mxCell>
        <mxCell id="MTOQvqBgH8RQE9H4jNm6-36" style="edgeStyle=orthogonalEdgeStyle;rounded=0;orthogonalLoop=1;jettySize=auto;html=1;entryX=0;entryY=0.5;entryDx=0;entryDy=0;fontSize=11;" parent="sS0yLVqc_8xqp_RQtCRq-1" source="MTOQvqBgH8RQE9H4jNm6-27" target="MTOQvqBgH8RQE9H4jNm6-35" edge="1">
          <mxGeometry relative="1" as="geometry" />
        </mxCell>
        <mxCell id="MTOQvqBgH8RQE9H4jNm6-37" value="ROI 切取" style="rounded=0;whiteSpace=wrap;html=1;fillColor=#d80073;strokeColor=#A50040;fontColor=#ffffff;" parent="sS0yLVqc_8xqp_RQtCRq-1" vertex="1">
          <mxGeometry x="493" y="30" width="78" height="40" as="geometry" />
        </mxCell>
        <mxCell id="MTOQvqBgH8RQE9H4jNm6-43" style="edgeStyle=orthogonalEdgeStyle;rounded=0;orthogonalLoop=1;jettySize=auto;html=1;exitX=1;exitY=0.5;exitDx=0;exitDy=0;entryX=0;entryY=0.5;entryDx=0;entryDy=0;fontSize=11;" parent="sS0yLVqc_8xqp_RQtCRq-1" source="MTOQvqBgH8RQE9H4jNm6-15" target="MTOQvqBgH8RQE9H4jNm6-37" edge="1">
          <mxGeometry relative="1" as="geometry" />
        </mxCell>
        <mxCell id="MTOQvqBgH8RQE9H4jNm6-42" style="edgeStyle=orthogonalEdgeStyle;rounded=0;orthogonalLoop=1;jettySize=auto;html=1;exitX=0.5;exitY=0;exitDx=0;exitDy=0;entryX=0.5;entryY=1;entryDx=0;entryDy=0;fontSize=11;" parent="sS0yLVqc_8xqp_RQtCRq-1" source="MTOQvqBgH8RQE9H4jNm6-35" target="MTOQvqBgH8RQE9H4jNm6-37" edge="1">
          <mxGeometry relative="1" as="geometry" />
        </mxCell>
        <mxCell id="MTOQvqBgH8RQE9H4jNm6-44" value="Head网络" style="rounded=0;whiteSpace=wrap;html=1;fillColor=#d80073;strokeColor=#A50040;fontColor=#ffffff;" parent="sS0yLVqc_8xqp_RQtCRq-1" vertex="1">
          <mxGeometry x="602" y="30" width="78" height="40" as="geometry" />
        </mxCell>
        <mxCell id="MTOQvqBgH8RQE9H4jNm6-51" style="edgeStyle=orthogonalEdgeStyle;rounded=0;orthogonalLoop=1;jettySize=auto;html=1;entryX=0;entryY=0.5;entryDx=0;entryDy=0;fontSize=11;" parent="sS0yLVqc_8xqp_RQtCRq-1" source="MTOQvqBgH8RQE9H4jNm6-37" target="MTOQvqBgH8RQE9H4jNm6-44" edge="1">
          <mxGeometry relative="1" as="geometry" />
        </mxCell>
        <mxCell id="MTOQvqBgH8RQE9H4jNm6-54" value="目标分类" style="rounded=0;whiteSpace=wrap;html=1;fillColor=#d80073;strokeColor=#A50040;fontColor=#ffffff;" parent="sS0yLVqc_8xqp_RQtCRq-1" vertex="1">
          <mxGeometry x="722" width="78" height="40" as="geometry" />
        </mxCell>
        <mxCell id="MTOQvqBgH8RQE9H4jNm6-56" style="edgeStyle=orthogonalEdgeStyle;rounded=0;orthogonalLoop=1;jettySize=auto;html=1;exitX=1;exitY=0.5;exitDx=0;exitDy=0;entryX=0;entryY=0.5;entryDx=0;entryDy=0;fontSize=11;" parent="sS0yLVqc_8xqp_RQtCRq-1" source="MTOQvqBgH8RQE9H4jNm6-44" target="MTOQvqBgH8RQE9H4jNm6-54" edge="1">
          <mxGeometry relative="1" as="geometry">
            <Array as="points">
              <mxPoint x="702" y="50" />
              <mxPoint x="702" y="20" />
            </Array>
          </mxGeometry>
        </mxCell>
        <mxCell id="MTOQvqBgH8RQE9H4jNm6-55" value="边框回归" style="rounded=0;whiteSpace=wrap;html=1;fillColor=#d80073;strokeColor=#A50040;fontColor=#ffffff;" parent="sS0yLVqc_8xqp_RQtCRq-1" vertex="1">
          <mxGeometry x="722" y="60" width="78" height="40" as="geometry" />
        </mxCell>
        <mxCell id="MTOQvqBgH8RQE9H4jNm6-57" style="edgeStyle=orthogonalEdgeStyle;rounded=0;orthogonalLoop=1;jettySize=auto;html=1;exitX=1;exitY=0.5;exitDx=0;exitDy=0;entryX=-0.006;entryY=0.545;entryDx=0;entryDy=0;entryPerimeter=0;fontSize=11;" parent="sS0yLVqc_8xqp_RQtCRq-1" source="MTOQvqBgH8RQE9H4jNm6-44" target="MTOQvqBgH8RQE9H4jNm6-55" edge="1">
          <mxGeometry relative="1" as="geometry">
            <Array as="points">
              <mxPoint x="702" y="50" />
              <mxPoint x="702" y="82" />
              <mxPoint x="721" y="82" />
            </Array>
          </mxGeometry>
        </mxCell>
        <mxCell id="MTOQvqBgH8RQE9H4jNm6-58" value="&lt;b&gt;头部网络&lt;/b&gt;" style="text;html=1;strokeColor=none;fillColor=none;align=center;verticalAlign=middle;whiteSpace=wrap;rounded=0;dashed=1;" parent="sS0yLVqc_8xqp_RQtCRq-1" vertex="1">
          <mxGeometry x="582" width="70.25" height="20" as="geometry" />
        </mxCell>
      </root>
    </mxGraphModel>
  </diagram>
</mxfile>
